<?xml version="1.0" encoding="UTF-8"?>
<svg width="30px" height="24px" style=" fill:black;" viewBox="0 0 30 24" version="1.1" xmlns="http://www.w3.org/2000/svg" xmlns:xlink="http://www.w3.org/1999/xlink">
    <!-- Generator: Sketch 45.2 (43514) - http://www.bohemiancoding.com/sketch -->
    <title>Shop</title>
    <desc>Created with Sketch.</desc>
    <defs></defs>
    <g id="Symbols" stroke="none" stroke-width="1" fill="black" fill-rule="evenodd">
        <g id="Button" transform="translate(-20.000000, -5.000000)" stroke="#B2A0CF" stroke-width="0.4" fill="#B2A0CF" fill-rule="nonzero">
            <path  style="fill:black; stroke:black;" d="M32.2300244,9.75988497 L32.4804328,11.263839 L47.1003695,11.263839 L44.3112868,18.7836089 C43.8728842,20.0296348 43.3013817,21.0395399 42.0553558,21.0395399 L30.7757009,21.0395399 C29.529675,21.0395399 29.0062991,20.0048195 28.5197699,18.7836089 L25.5712681,6 L21,6 L21,7.50395399 L24.3620891,7.50395399 L27.015816,18.7836089 C27.5790467,20.7387491 28.6994924,22.5434939 30.7757009,22.5434939 L42.0553558,22.5434939 C44.1315643,22.5434939 45.1249259,20.9410309 45.8152408,18.7836089 L48.8231488,9.75988497 L32.2300244,9.75988497 Z M42.0553558,24.0474479 C40.80933,24.0474479 39.7994248,25.057353 39.7994248,26.3033788 C39.7994248,27.5494047 40.80933,28.5593098 42.0553558,28.5593098 C43.3013817,28.5593098 44.3112868,27.5494047 44.3112868,26.3033788 C44.3112868,25.057353 43.3013817,24.0474479 42.0553558,24.0474479 Z M42.8073328,27.0553558 L41.3033788,27.0553558 L41.3033788,25.5514018 L42.8073328,25.5514018 L42.8073328,27.0553558 Z M30.0237239,24.0474479 C28.777698,24.0474479 27.7677929,25.057353 27.7677929,26.3033788 C27.7677929,27.5494047 28.777698,28.5593098 30.0237239,28.5593098 C31.2697498,28.5593098 32.2796549,27.5494047 32.2796549,26.3033788 C32.2796549,25.057353 31.2697498,24.0474479 30.0237239,24.0474479 Z M30.7757009,27.0553558 L29.2717469,27.0553558 L29.2717469,25.5514018 L30.7757009,25.5514018 L30.7757009,27.0553558 Z" id="Shop"></path>
        </g>
    </g>
</svg>