<?xml version="1.0" encoding="UTF-8"?>
<svg width="21px" height="30px" viewBox="0 0 21 30" version="1.1" xmlns="http://www.w3.org/2000/svg" xmlns:xlink="http://www.w3.org/1999/xlink">
    <!-- Generator: Sketch 45.2 (43514) - http://www.bohemiancoding.com/sketch -->
    <title>Girl</title>
    <desc>Created with Sketch.</desc>
    <defs></defs>
    <g id="Symbols" stroke="none" stroke-width="1" fill="none" fill-rule="evenodd">
        <g id="Heder" transform="translate(-1329.000000, -70.000000)" stroke="#000000" stroke-width="0.4" fill="#000000" fill-rule="nonzero">
            <g id="2" transform="translate(0.000000, 50.000000)">
                <path d="M1346.07853,38.0800784 C1347.19755,35.9009372 1347.7865,33.2506304 1347.7865,30.4825321 C1347.7865,26.3598326 1347.13865,23.8273171 1345.72515,22.4138201 C1344.37055,21.0003232 1342.42699,21.0003232 1339.6,21.0003232 C1336.8908,21.0003232 1334.88834,20.9414275 1333.47485,22.4138201 C1332.12025,23.8273171 1331.4135,26.3598326 1331.4135,30.4825321 C1331.4135,33.2506304 1332.00245,35.9009372 1333.12147,38.1389741 C1331.29571,38.7279312 1330,40.4359068 1330,42.4972565 L1330,45.7365205 C1330,45.9132076 1330.11779,46.0898947 1330.23558,46.2076861 C1332.94479,48.2101402 1336.18405,49.2702629 1339.6,49.2702629 C1343.01595,49.2702629 1346.25522,48.2101402 1348.96442,46.2076861 C1349.14111,46.0898947 1349.2,45.9132076 1349.2,45.7365205 L1349.2,42.4383608 C1349.2,40.377011 1347.9043,38.6690355 1346.07853,38.0800784 Z M1339.6,35.7242501 C1337.36196,35.7242501 1335.59509,33.132839 1335.59509,30.0113665 C1335.59509,29.1868266 1335.71288,28.3622866 1335.94847,27.6555381 C1336.59632,28.0089124 1337.47975,28.3033909 1338.83436,28.2444952 C1339.89448,28.1855995 1340.83681,28.3622866 1341.66135,28.7745566 C1342.3092,29.1279308 1343.19264,29.7168879 1343.60491,30.6003235 C1343.36933,33.4862132 1341.66135,35.7242501 1339.6,35.7242501 Z M1337.24417,36.8432686 L1337.36196,36.1954158 C1338.06871,36.6665815 1338.83436,36.9021643 1339.6,36.9021643 C1340.42454,36.9021643 1341.19018,36.6665815 1341.83804,36.1954158 L1341.95583,36.8432686 C1342.13252,37.9033913 1342.95706,38.7279312 1343.95828,38.9635141 C1343.60491,40.4359068 1340.83681,41.9082994 1339.6,42.4383608 C1338.36319,41.9082994 1335.5362,40.4359068 1335.24172,38.9635141 C1336.24295,38.7868269 1337.06748,37.962287 1337.24417,36.8432686 Z M1332.59141,30.4825321 C1332.59141,26.7721025 1333.18037,24.4162742 1334.29939,23.2383601 C1335.30061,22.1782373 1337.12638,22.1782373 1339.6,22.1782373 C1341.77914,22.1193416 1343.89939,22.1782373 1344.90061,23.2383601 C1345.96074,24.4162742 1346.60859,26.7132068 1346.60859,30.4825321 C1346.60859,33.1917347 1346.01963,35.8420415 1344.90061,37.9033913 C1343.89939,38.0211827 1343.25153,37.3733299 1343.19264,36.7254772 L1342.95706,35.3119802 C1344.01718,34.134066 1344.72393,32.4260905 1344.84172,30.4825321 C1344.84172,30.4236364 1344.84172,30.305845 1344.78282,30.2469493 C1344.37055,29.2457223 1343.48712,28.3622866 1342.25031,27.7144339 C1341.24908,27.2432682 1340.07117,27.0076854 1338.83436,27.0665811 C1337.24417,27.1254768 1336.47853,26.6543111 1336.12515,26.3009369 C1336.00736,26.1831455 1335.77178,26.065354 1335.59509,26.1242497 C1335.41841,26.1831455 1335.24172,26.3009369 1335.18282,26.477624 C1334.71166,27.5377467 1334.47607,28.7745566 1334.47607,30.0113665 C1334.47607,32.1316119 1335.18282,34.0751703 1336.36074,35.3119802 L1336.06626,36.6665815 C1335.94847,37.3733299 1335.35951,37.962287 1334.35828,37.8444956 C1333.23926,35.7831458 1332.59141,33.1917347 1332.59141,30.4825321 Z M1348.02209,45.4420419 C1345.54847,47.1500174 1342.66258,48.0923488 1339.6,48.0923488 C1336.53742,48.0923488 1333.65153,47.1500174 1331.17791,45.4420419 L1331.17791,42.4383608 C1331.17791,40.7303853 1332.41472,39.3168883 1334.0638,39.0813055 C1334.47607,41.6138209 1338.89325,43.4395879 1339.42331,43.616275 C1339.48221,43.616275 1339.5411,43.6751707 1339.6589,43.6751707 C1339.71779,43.6751707 1339.77669,43.6751707 1339.89448,43.616275 C1340.42454,43.4395879 1344.78282,41.6138209 1345.25399,39.0813055 C1346.90307,39.3168883 1348.13988,40.7303853 1348.13988,42.4383608 L1348.13988,45.4420419 L1348.02209,45.4420419 Z" id="Girl"></path>
            </g>
        </g>
    </g>
</svg>