<?xml version="1.0" encoding="UTF-8"?>
<svg width="17px" height="21px" viewBox="0 0 17 21" version="1.1" xmlns="http://www.w3.org/2000/svg" xmlns:xlink="http://www.w3.org/1999/xlink">
    <!-- Generator: Sketch 45.2 (43514) - http://www.bohemiancoding.com/sketch -->
    <title>Combined Shape</title>
    <desc>Created with Sketch.</desc>
    <defs></defs>
    <g id="Symbols" stroke="none" stroke-width="1" fill="none" fill-rule="evenodd">
        <g id="Heder" transform="translate(-340.000000, -15.000000)" stroke-width="1.5" stroke="#FFFFFF">
            <g id="1">
                <g id="Group-2" transform="translate(341.000000, 16.000000)">
                    <path d="M12.5093761,2.23374879 C13.1803211,2.9321735 13.7069954,3.74527991 14.0747723,4.65051284 C14.453127,5.58166065 14.6460045,6.56990371 14.6481549,7.58810902 C14.6517002,7.66978314 14.6565434,7.90545334 14.6197347,8.27358611 C14.556695,9.02480331 14.3872588,9.75865222 14.1160368,10.4550926 C13.6822367,11.6941932 13.0133452,12.9231559 12.1278249,14.1079905 C10.9940203,15.6249836 9.50789838,17.0612653 7.71070424,18.3768336 L7.32520099,18.6590287 L6.93967836,18.3768532 C5.14250359,17.0612653 3.65636228,15.6250229 2.52255766,14.1079709 C1.63697925,12.9230576 0.968126542,11.6941736 0.534326404,10.4550336 C0.263123826,9.75859328 0.093706972,9.02478366 0.0306672414,8.27362541 C-0.00596709499,7.90741808 -0.00104635388,7.66803452 0.00224705553,7.58903245 C0.00428122016,6.57051278 0.197158773,5.58195536 0.575629633,4.65053249 C0.943445345,3.74529956 1.47011963,2.93219315 2.14106462,2.23376844 C2.81317198,1.53412559 3.59636411,0.984608302 4.46886576,0.600443276 C5.37375905,0.202014259 6.33477591,0 7.32522036,0 C8.31566481,0 9.27670104,0.202014259 10.1815943,0.600423628 C11.054096,0.984588655 11.8373075,1.53412559 12.5093761,2.23374879 Z M7.32522036,2.76617288 C6.1453855,2.76617288 5.03616521,3.2321299 4.20190586,4.07822425 C3.36762714,4.92431859 2.90817716,6.04924841 2.90817716,7.24577324 C2.90817716,8.44231773 3.36762714,9.56724755 4.20190586,10.4133419 C5.03616521,11.2594362 6.14536613,11.7253736 7.32522036,11.7253736 C8.50507459,11.7253736 9.61427551,11.2594166 10.4485349,10.4133419 C11.2827942,9.56728684 11.7422636,8.44233737 11.7422636,7.24577324 C11.7422636,6.04924841 11.2828136,4.92431859 10.4485349,4.07822425 C9.61427551,3.2321299 8.50505522,2.76617288 7.32522036,2.76617288 Z" id="Combined-Shape"></path>
                </g>
            </g>
        </g>
    </g>
</svg>