<?xml version="1.0" encoding="UTF-8"?>
<svg width="27px" height="19px" viewBox="0 0 27 19" version="1.1" xmlns="http://www.w3.org/2000/svg" xmlns:xlink="http://www.w3.org/1999/xlink">
    <!-- Generator: Sketch 45.2 (43514) - http://www.bohemiancoding.com/sketch -->
    <title>if_equipmentrental_2318443</title>
    <desc>Created with Sketch.</desc>
    <defs></defs>
    <g id="Symbols" stroke="none" stroke-width="1" fill="none" fill-rule="evenodd">
        <g id="Heder" transform="translate(-995.000000, -16.000000)" fill-rule="nonzero" fill="#B2A0CF">
            <g id="1">
                <g id="if_equipmentrental_2318443" transform="translate(995.000000, 16.000000)">
                    <polygon id="Shape" points="26.2249773 15.6272125 22.9498488 15.6272125 22.9498488 13.9866545 24.5844193 13.9866545 24.5844193 9.20269179 23.1773715 4.97556075 17.207896 4.97556075 17.207896 13.9866545 18.028175 13.9866545 18.028175 15.6272125 15.5733255 15.6272125 15.5733255 3.33500282 24.3568967 3.33500282 26.2249773 8.93924453"></polygon>
                    <path d="M20.4890119,18.0880494 C18.6808057,18.0880494 17.207896,16.6151397 17.207896,14.8069335 C17.207896,12.9987273 18.6808057,11.5258176 20.4890119,11.5258176 C22.2972181,11.5258176 23.7701278,12.9987273 23.7701278,14.8069335 C23.7641404,16.6151397 22.2972181,18.0880494 20.4890119,18.0880494 Z M20.4890119,13.1663756 C19.5849088,13.1663756 18.848454,13.9028304 18.848454,14.8069335 C18.848454,15.7110366 19.5849088,16.4474914 20.4890119,16.4474914 C21.393115,16.4474914 22.1295699,15.7110366 22.1295699,14.8069335 C22.1295699,13.9028304 21.393115,13.1663756 20.4890119,13.1663756 Z" id="Shape"></path>
                    <polygon id="Shape" points="4.91568638 15.6272125 1.64055794 15.6272125 1.64055794 9.89124713 3.27512844 9.89124713 3.27512844 13.9866545 4.91568638 13.9866545"></polygon>
                    <polygon id="Shape" points="17.207896 15.6272125 9.83137275 15.6272125 9.83137275 13.9866545 15.5733255 13.9866545 15.5733255 1.69444488 0 1.69444488 0 0.0538869396 17.207896 0.0538869396"></polygon>
                    <path d="M7.37652328,18.0880494 C5.56831709,18.0880494 4.09540741,16.6151397 4.09540741,14.8069335 C4.09540741,12.9987273 5.56831709,11.5258176 7.37652328,11.5258176 C9.18472948,11.5258176 10.6576392,12.9987273 10.6576392,14.8069335 C10.6516517,16.6151397 9.18472948,18.0880494 7.37652328,18.0880494 Z M7.37652328,13.1663756 C6.47242019,13.1663756 5.73596535,13.9028304 5.73596535,14.8069335 C5.73596535,15.7110366 6.47242019,16.4474914 7.37652328,16.4474914 C8.28062638,16.4474914 9.01708122,15.7110366 9.01708122,14.8069335 C9.01708122,13.9028304 8.28062638,13.1663756 7.37652328,13.1663756 Z" id="Shape"></path>
                    <rect id="Rectangle-path" x="0.820278969" y="3.33500282" width="7.37652328" height="1.64055794"></rect>
                    <rect id="Rectangle-path" x="1.64055794" y="6.61013125" width="4.91568638" height="1.64055794"></rect>
                </g>
            </g>
        </g>
    </g>
</svg>