<?xml version="1.0" encoding="UTF-8"?>
<svg width="25px" height="25px" viewBox="0 0 25 25" version="1.1" xmlns="http://www.w3.org/2000/svg" xmlns:xlink="http://www.w3.org/1999/xlink">
    <!-- Generator: Sketch 45.2 (43514) - http://www.bohemiancoding.com/sketch -->
    <title>Group Copy 3</title>
    <desc>Created with Sketch.</desc>
    <defs></defs>
    <g id="Page-1" stroke="none" stroke-width="1" fill="none" fill-rule="evenodd">
        <g id="Desktop-HD" transform="translate(-1430.000000, -2534.000000)" fill="#FFFFFF">
            <g id="Group-Copy-3" transform="translate(1430.128906, 2534.000000)">
                <path d="M12.1807785,2.21673389 C15.4334022,2.21673389 15.8182823,2.22942325 17.1029889,2.28847758 C18.2905084,2.34313945 18.935521,2.54324092 19.3648848,2.71161899 C19.8945219,2.90842584 20.3736828,3.22263462 20.7670862,3.63110967 C21.1717659,4.02820258 21.4830553,4.51185729 21.6780336,5.04646155 C21.8448472,5.47985206 22.0430894,6.13091393 22.0972434,7.32957056 C22.1557491,8.62583767 22.1683205,9.01481541 22.1683205,12.2979437 C22.1683205,15.5810721 22.1557491,15.9695618 22.0972434,17.2663169 C22.0430894,18.4649735 21.8448472,19.1160354 21.6780336,19.5494259 C21.2682305,20.6216589 20.4286058,21.4691579 19.3663353,21.8828043 C18.9369716,22.0511824 18.291959,22.2512839 17.1044394,22.3059457 C15.8202164,22.3650001 15.4348527,22.3776894 12.182229,22.3776894 C8.9296053,22.3776894 8.54424167,22.3650001 7.2600186,22.3059457 C6.07249907,22.2512839 5.42748643,22.0511824 4.9981227,21.8828043 C4.46848562,21.6859975 3.9893247,21.3717887 3.5959213,20.9633136 C3.19124153,20.5662207 2.87995216,20.082566 2.68497391,19.5479618 C2.5181603,19.1145713 2.31991803,18.4635094 2.26576405,17.2648528 C2.2072584,15.9685856 2.19468694,15.5796079 2.19468694,12.2964796 C2.19468694,9.01335125 2.2072584,8.62486156 2.26576405,7.32810641 C2.31991803,6.12944977 2.5181603,5.47838791 2.68497391,5.0449974 C2.87995216,4.51039314 3.19124153,4.02673843 3.5959213,3.62964551 C3.9893247,3.22117046 4.46848562,2.90696168 4.9981227,2.71015484 C5.42748643,2.54177677 6.07249907,2.34167529 7.2600186,2.28701343 C8.54424167,2.22795909 8.9296053,2.21526973 12.182229,2.21526973 L12.1807785,2.21673389 Z M12.182229,0 C8.87400076,0 8.45914255,0.0141535189 7.15993043,0.0741839609 C5.86071831,0.134214403 4.97684792,0.343100819 4.20176901,0.647157449 C3.38903693,0.955784131 2.65277416,1.439626 2.04431293,2.0649496 C1.42479941,2.67911726 0.945453078,3.42228504 0.639693947,4.24263929 C0.338462406,5.02498725 0.132483856,5.91861115 0.0734946938,7.22707956 C0.0145055317,8.53554798 0,8.95722523 0,12.2964796 C0,15.6357339 0.0140220139,16.0544829 0.0734946938,17.3658796 C0.132967374,18.6772763 0.338462406,19.5679719 0.639693947,20.3503199 C0.945594699,21.1707186 1.42510838,21.91389 2.04479645,22.5280096 C2.65306997,23.1534502 3.38916581,23.6374573 4.20176901,23.9462898 C4.97539736,24.2503464 5.86216886,24.4582567 7.15847988,24.5177991 C8.45479089,24.5773415 8.8725502,24.5919831 12.1807785,24.5919831 C15.4890067,24.5919831 15.9038649,24.5778295 17.203077,24.5177991 C18.5022892,24.4577687 19.3851925,24.2503464 20.1597879,23.9462898 C21.7960253,23.3075354 23.089527,22.0019026 23.7223465,20.3503199 C24.023578,19.5694361 24.2295566,18.674348 24.2885457,17.3658796 C24.3475349,16.0574112 24.3620404,15.6357339 24.3620404,12.2964796 C24.3620404,8.95722523 24.3480184,8.53847629 24.2885457,7.22707956 C24.2290731,5.91568283 24.023578,5.0244992 23.7223465,4.24263929 C23.4164457,3.42224054 22.9369321,2.67906914 22.317244,2.0649496 C21.7088304,1.43944981 20.9725641,0.955439027 20.1597879,0.646669396 C19.384709,0.343100819 18.4993881,0.135190508 17.203077,0.0756481181 C15.906766,0.0161057284 15.4890067,0.00146415712 12.1807785,0.00146415712 L12.182229,0 Z" id="Shape"></path>
                <path d="M12.2951461,6.04084434 C8.84078652,6.04111388 6.04066632,8.86785906 6.04084434,12.3546152 C6.04102236,15.8413713 8.84143119,18.6678252 12.2957908,18.6677354 C15.7501503,18.6676455 18.5504148,15.841046 18.5504148,12.3542899 C18.5504149,10.6797754 17.8913641,9.0738519 16.7182597,7.88983716 C15.5451554,6.70582242 13.954102,6.0407149 12.2951461,6.04084434 L12.2951461,6.04084434 Z M12.2951461,16.4529537 C10.0520146,16.4529537 8.23359721,14.6174824 8.23359721,12.3533138 C8.23359721,10.0891451 10.0520146,8.25367381 12.2951461,8.25367381 C14.5382776,8.25367381 16.3566949,10.0891451 16.3566949,12.3533138 C16.3564279,14.6172918 14.5380888,16.4524657 12.2951461,16.4524657 L12.2951461,16.4529537 Z" id="Shape"></path>
                <ellipse id="Oval" cx="18.073996" cy="6.00601559" rx="1.46167407" ry="1.47538233"></ellipse>
            </g>
        </g>
    </g>
</svg>