<?xml version="1.0" encoding="UTF-8"?>
<svg width="23px" height="23px" viewBox="0 0 23 23" version="1.1" xmlns="http://www.w3.org/2000/svg" xmlns:xlink="http://www.w3.org/1999/xlink">
    <!-- Generator: Sketch 45.2 (43514) - http://www.bohemiancoding.com/sketch -->
    <title>round-information-button</title>
    <desc>Created with Sketch.</desc>
    <defs></defs>
    <g id="Symbols" stroke="none" stroke-width="1" fill="none" fill-rule="evenodd">
        <g id="Heder" transform="translate(-1267.000000, -13.000000)" stroke-width="0.5" stroke="#B2A0CF" fill="#B2A0CF" fill-rule="nonzero">
            <g id="1">
                <g id="round-information-button" transform="translate(1267.944050, 14.000000)">
                    <path d="M10.8644638,0 C4.87393911,0 0,4.87399343 0,10.8648984 C0,16.8558034 4.87393911,21.7297968 10.8644638,21.7297968 C16.8554231,21.7297968 21.7297968,16.8558034 21.7297968,10.8648984 C21.7297968,4.87399343 16.8554231,0 10.8644638,0 Z M10.8644638,20.3048654 C5.65952559,20.3048654 1.42493143,16.070054 1.42493143,10.8648984 C1.42493143,5.65968856 5.65947126,1.42498575 10.8644638,1.42498575 C16.070054,1.42498575 20.3047568,5.65974289 20.3047568,10.8648984 C20.3048111,16.070054 16.070054,20.3048654 10.8644638,20.3048654 Z" id="Shape"></path>
                    <path d="M10.6635175,6.84325627 C11.1880748,6.84325627 11.6135442,6.41778685 11.6135442,5.89317523 C11.6135442,5.36856361 11.1880748,4.94309419 10.6635175,4.94309419 C10.1385256,4.94309419 9.71349081,5.36856361 9.71349081,5.89317523 C9.71349081,6.41778685 10.1385256,6.84325627 10.6635175,6.84325627 Z" id="Shape"></path>
                    <path d="M12.1735754,15.1883674 L11.5776901,15.1883674 L11.5776901,8.3966108 C11.5776901,8.0031385 11.258751,7.68409076 10.865333,7.68409076 L9.5564387,7.68409076 C9.16302073,7.68409076 8.84408164,8.0031385 8.84408164,8.3966108 C8.84408164,8.79008309 9.16302073,9.10907651 9.5564387,9.10907651 L10.1527587,9.10907651 L10.1527587,15.1883674 L9.5564387,15.1883674 C9.16302073,15.1883674 8.84408164,15.5073609 8.84408164,15.9008332 C8.84408164,16.2942511 9.16302073,16.6132989 9.5564387,16.6132989 L12.1735754,16.6132989 C12.5672107,16.6132989 12.8861498,16.2942511 12.8861498,15.9008332 C12.8861498,15.5073609 12.5672107,15.1883674 12.1735754,15.1883674 Z" id="Shape"></path>
                </g>
            </g>
        </g>
    </g>
</svg>