<?xml version="1.0" encoding="UTF-8"?>
<svg width="65px" height="65px" viewBox="0 0 65 65" version="1.1" xmlns="http://www.w3.org/2000/svg" xmlns:xlink="http://www.w3.org/1999/xlink">
    <!-- Generator: Sketch 45.2 (43514) - http://www.bohemiancoding.com/sketch -->
    <title>Group Copy 2</title>
    <desc>Created with Sketch.</desc>
    <defs></defs>
    <g id="Page-1" stroke="none" stroke-width="1" fill="none" fill-rule="evenodd">
        <g id="Desktop-HD" transform="translate(-771.000000, -2143.000000)" fill="#FFFFFF">
            <g id="Group-Copy-2" transform="translate(771.000000, 2143.000000)">
                <path d="M32.0681921,5.83596922 C40.6313363,5.83596922 41.6446056,5.86937635 45.0268376,6.02484801 C48.1532062,6.16875566 49.8513234,6.69556045 50.9817043,7.13884742 C52.3760736,7.65697847 53.6375549,8.48419224 54.6732634,9.55957969 C55.7386591,10.6050015 56.5581869,11.8783136 57.0715039,13.28576 C57.5106721,14.426742 58.0325822,16.140785 58.1751527,19.2964742 C58.3291799,22.7091413 58.3622766,23.7331985 58.3622766,32.3766518 C58.3622766,41.0201051 58.3291799,42.0428773 58.1751527,45.4568294 C58.0325822,48.6125186 57.5106721,50.3265615 57.0715039,51.4675436 C55.9926202,54.2903986 53.7821501,56.5215995 50.9855231,57.6106014 C49.8551423,58.0538884 48.1570251,58.5806932 45.0306564,58.7246008 C41.6496974,58.8800725 40.6351552,58.9134796 32.072011,58.9134796 C23.5088668,58.9134796 22.4943245,58.8800725 19.1133655,58.7246008 C15.9869969,58.5806932 14.2888797,58.0538884 13.1584988,57.6106014 C11.7641295,57.0924704 10.5026482,56.2652566 9.46693969,55.1898692 C8.40154402,54.1444473 7.58201616,52.8711352 7.06869922,51.4636889 C6.62953098,50.3227068 6.1076209,48.6086639 5.96505034,45.4529747 C5.81102322,42.0403075 5.77792649,41.0162504 5.77792649,32.3727971 C5.77792649,23.7293438 5.81102322,22.7065716 5.96505034,19.2926195 C6.1076209,16.1369303 6.62953098,14.4228874 7.06869922,13.2819053 C7.58201616,11.8744589 8.40154402,10.6011469 9.46693969,9.55572502 C10.5026482,8.48033757 11.7641295,7.65312381 13.1584988,7.13499275 C14.2888797,6.69170579 15.9869969,6.16490099 19.1133655,6.02099334 C22.4943245,5.86552168 23.5088668,5.83211455 32.072011,5.83211455 L32.0681921,5.83596922 Z M32.072011,0 C23.3624774,0 22.2702851,0.0372618026 18.8498646,0.195303241 C15.4294441,0.35334468 13.1024889,0.90327749 11.0619478,1.7037638 C8.92227766,2.51628163 6.98392732,3.79008642 5.38203859,5.43636851 C3.75105265,7.05328049 2.48908319,9.00980956 1.68411473,11.1695465 C0.891065992,13.2292248 0.348788688,15.5818579 0.193488616,19.0266473 C0.0381885425,22.4714367 0,23.5815815 0,32.3727971 C0,41.1640127 0.0369155911,42.2664481 0.193488616,45.7189469 C0.35006164,49.1714456 0.891065992,51.5163694 1.68411473,53.5760476 C2.48945604,55.7359018 3.75186606,57.6924404 5.38331155,59.3092257 C6.9847061,60.9558158 8.92261695,62.2300557 11.0619478,63.0431153 C13.0986701,63.8436016 15.433263,64.3909646 18.8460457,64.5477212 C22.2588285,64.7044777 23.3586585,64.7430244 32.0681921,64.7430244 C40.7777257,64.7430244 41.869918,64.7057626 45.2903385,64.5477212 C48.710759,64.3896797 51.0351682,63.8436016 53.0744364,63.0431153 C57.3821392,61.3614741 60.7875259,57.9241501 62.4535425,53.5760476 C63.2465912,51.5202241 63.7888685,49.1637363 63.9441686,45.7189469 C64.0994686,42.2741575 64.1376572,41.1640127 64.1376572,32.3727971 C64.1376572,23.5815815 64.1007416,22.4791461 63.9441686,19.0266473 C63.7875955,15.5741486 63.2465912,13.2279399 62.4535425,11.1695465 C61.6482012,9.00969241 60.3857911,7.05315379 58.7543456,5.43636851 C57.1525824,3.78962257 55.2142226,2.51537308 53.0744364,1.70247891 C51.0338953,0.90327749 48.7031212,0.355914459 45.2903385,0.19915791 C41.8775557,0.0424013615 40.7777257,0.00385466923 32.0681921,0.00385466923 L32.072011,0 Z" id="Shape"></path>
                <path d="M32.3692864,15.9036598 C23.2750346,15.9043694 15.9031911,23.3463082 15.9036598,32.5258501 C15.9041285,41.7053919 23.2767318,49.1465637 32.3709836,49.1463272 C41.4652354,49.1460907 48.8374589,41.7045354 48.8374589,32.5249935 C48.8374589,28.1165191 47.1023836,23.8886231 44.0139656,20.7714815 C40.9255476,17.6543398 36.7368002,15.903319 32.3692864,15.9036598 L32.3692864,15.9036598 Z M32.3692864,43.3154976 C26.4638205,43.3154976 21.6764945,38.4832739 21.6764945,32.5224238 C21.6764945,26.5615737 26.4638205,21.7293499 32.3692864,21.7293499 C38.2747523,21.7293499 43.0620783,26.5615737 43.0620783,32.5224238 C43.0613753,38.4827721 38.2742552,43.3142128 32.3692864,43.3142127 L32.3692864,43.3154976 Z" id="Shape"></path>
                <ellipse id="Oval" cx="47.5831966" cy="15.8119666" rx="3.84813214" ry="3.8842217"></ellipse>
            </g>
        </g>
    </g>
</svg>