<?xml version="1.0" encoding="UTF-8"?>
<svg width="22px" height="20px" viewBox="0 0 22 20" version="1.1" xmlns="http://www.w3.org/2000/svg" xmlns:xlink="http://www.w3.org/1999/xlink">
    <!-- Generator: Sketch 45.2 (43514) - http://www.bohemiancoding.com/sketch -->
    <title>if_currency_2318459</title>
    <desc>Created with Sketch.</desc>
    <defs></defs>
    <g id="Symbols" stroke="none" stroke-width="1" fill="none" fill-rule="evenodd">
        <g id="Heder" transform="translate(-1145.000000, -15.000000)" fill-rule="nonzero" fill="#B2A0CF">
            <g id="1">
                <g id="if_currency_2318459" transform="translate(1145.000000, 15.000000)">
                    <path d="M15.8379472,6.35367188 C12.9186925,6.35367188 9.95980998,5.26390488 9.95980998,3.19004524 C9.95980998,1.1161856 12.9186925,0.0264185941 15.8379472,0.0264185941 C18.7572018,0.0264185941 21.7160844,1.1161856 21.7160844,3.19004524 C21.7160844,5.26390488 18.7572018,6.35367188 15.8379472,6.35367188 Z M15.8379472,1.83609229 C13.1960878,1.83609229 11.7694837,2.80037098 11.7694837,3.19004524 C11.7694837,3.58632415 13.1960878,4.54399819 15.8379472,4.54399819 C18.4798066,4.54399819 19.9064107,3.5797195 19.9064107,3.19004524 C19.9064107,2.79376633 18.4798066,1.83609229 15.8379472,1.83609229 Z" id="Shape"></path>
                    <path d="M15.8379472,9.97301928 C12.9186925,9.97301928 9.95980998,8.88325227 9.95980998,6.80939263 L9.95980998,3.19004524 L11.7694837,3.19004524 L11.7694837,6.80939263 C11.7694837,7.20567154 13.1960878,8.16334558 15.8379472,8.16334558 C18.4798066,8.16334558 19.9064107,7.1990669 19.9064107,6.80939263 L19.9064107,3.19004524 L21.7160844,3.19004524 L21.7160844,6.80939263 C21.7160844,8.88325227 18.7572018,9.97301928 15.8379472,9.97301928 Z" id="Shape"></path>
                    <path d="M15.8379472,13.585762 C12.9186925,13.585762 9.95980998,12.495995 9.95980998,10.4221354 L9.95980998,6.80278798 L11.7694837,6.80278798 L11.7694837,10.4221354 C11.7694837,10.8184143 13.1960878,11.7760883 15.8379472,11.7760883 C18.4798066,11.7760883 19.9064107,10.8118096 19.9064107,10.4221354 L19.9064107,6.80278798 L21.7160844,6.80278798 L21.7160844,10.4221354 C21.7160844,12.5025997 18.7572018,13.585762 15.8379472,13.585762 Z" id="Shape"></path>
                    <path d="M15.8379472,17.2051094 C12.9186925,17.2051094 9.95980998,16.1153424 9.95980998,14.0414828 L9.95980998,10.4221354 L11.7694837,10.4221354 L11.7694837,14.0414828 C11.7694837,14.4377617 13.1960878,15.3954357 15.8379472,15.3954357 C18.4798066,15.3954357 19.9064107,14.431157 19.9064107,14.0414828 L19.9064107,10.4221354 L21.7160844,10.4221354 L21.7160844,14.0414828 C21.7160844,16.1153424 18.7572018,17.2051094 15.8379472,17.2051094 Z" id="Shape"></path>
                    <path d="M5.89134649,12.6809252 C2.97209184,12.6809252 0.0132092971,11.5911582 0.0132092971,9.51729853 C0.0132092971,7.44343889 2.97209184,6.35367188 5.89134649,6.35367188 C8.81060114,6.35367188 11.7694837,7.44343889 11.7694837,9.51729853 C11.7694837,11.5911582 8.81060114,12.6809252 5.89134649,12.6809252 Z M5.89134649,8.16334558 C3.24948708,8.16334558 1.82288299,9.12762427 1.82288299,9.51729853 C1.82288299,9.91357744 3.24948708,10.8712515 5.89134649,10.8712515 C8.5332059,10.8712515 9.95980998,9.90697279 9.95980998,9.51729853 C9.95980998,9.12762427 8.5332059,8.16334558 5.89134649,8.16334558 Z" id="Shape"></path>
                    <path d="M5.89134649,16.3002726 C2.97209184,16.3002726 0.0132092971,15.2105056 0.0132092971,13.1366459 L0.0132092971,9.51729853 L1.82288299,9.51729853 L1.82288299,13.1366459 C1.82288299,13.5329248 3.24948708,14.4905989 5.89134649,14.4905989 C8.5332059,14.4905989 9.95980998,13.5263202 9.95980998,13.1366459 L9.95980998,9.51729853 L11.7694837,9.51729853 L11.7694837,13.1366459 C11.7694837,15.2105056 8.81060114,16.3002726 5.89134649,16.3002726 Z" id="Shape"></path>
                    <path d="M5.89134649,19.9130153 C2.97209184,19.9130153 0.0132092971,18.8232483 0.0132092971,16.7493887 L0.0132092971,13.1300413 L1.82288299,13.1300413 L1.82288299,16.7493887 C1.82288299,17.1456676 3.24948708,18.1033416 5.89134649,18.1033416 C8.5332059,18.1033416 9.95980998,17.1390629 9.95980998,16.7493887 L9.95980998,13.1300413 L11.7694837,13.1300413 L11.7694837,16.7493887 C11.7694837,18.829853 8.81060114,19.9130153 5.89134649,19.9130153 Z" id="Shape"></path>
                </g>
            </g>
        </g>
    </g>
</svg>