<?xml version="1.0" encoding="UTF-8"?>
<svg width="19px" height="19px" viewBox="0 0 19 19" version="1.1" xmlns="http://www.w3.org/2000/svg" xmlns:xlink="http://www.w3.org/1999/xlink">
    <!-- Generator: Sketch 45.2 (43514) - http://www.bohemiancoding.com/sketch -->
    <title>Call Copy</title>
    <desc>Created with Sketch.</desc>
    <defs></defs>
    <g id="Symbols" stroke="none" stroke-width="1" fill="none" fill-rule="evenodd" stroke-linecap="round" stroke-linejoin="round">
        <g id="Heder" transform="translate(-635.000000, -15.000000)" stroke-width="1.5" stroke="#FFFFFF">
            <g id="1">
                <path d="M644.132595,26.5138223 C642.676161,25.3084631 641.703688,23.821106 641.192431,22.9747967 L640.811066,22.2511706 C640.94441,22.1071717 641.961278,21.0112327 642.401942,20.4166057 C642.955713,19.6699272 642.152824,18.9955639 642.152824,18.9955639 C642.152824,18.9955639 639.893657,16.7214234 639.378791,16.2703216 C638.863925,15.8185882 638.271248,16.069481 638.271248,16.069481 C637.18912,16.7732125 636.067302,17.3850499 636.000002,20.3275537 C635.997492,23.0824801 638.075311,25.9239321 640.322241,28.1237048 C642.57278,30.6080016 645.66276,33.0979826 648.650144,33.0951405 C651.573365,33.0280358 652.181102,31.899097 652.880297,30.8099474 C652.880297,30.8099474 653.129729,30.2138993 652.681378,29.6952191 C652.232714,29.1766967 649.97292,26.9023983 649.97292,26.9023983 C649.97292,26.9023983 649.303374,26.0941413 648.561352,26.6519792 C648.008365,27.0680286 647.015342,27.9934426 646.776107,28.2178093 C646.776578,28.2185988 645.115421,27.3272898 644.132595,26.5138223 Z" id="Call-Copy"></path>
            </g>
        </g>
    </g>
</svg>