<?xml version="1.0" encoding="UTF-8"?>
<svg width="27px" height="18px" viewBox="0 0 27 18" version="1.1" xmlns="http://www.w3.org/2000/svg" xmlns:xlink="http://www.w3.org/1999/xlink">
    <!-- Generator: Sketch 45.2 (43514) - http://www.bohemiancoding.com/sketch -->
    <title>hanger</title>
    <desc>Created with Sketch.</desc>
    <defs></defs>
    <g id="Symbols" stroke="none" stroke-width="1" fill="none" fill-rule="evenodd">
        <g id="Heder" transform="translate(-1437.000000, -16.000000)" stroke-width="0.6" stroke="#B2A0CF" fill="#B2A0CF" fill-rule="nonzero">
            <g id="1">
                <g id="hanger" transform="translate(1438.000000, 17.000000)">
                    <path d="M24.2618584,12.4612388 L13.1549605,6.5936615 L13.1549605,5.85287604 C13.1595978,5.85174138 13.1642351,5.85016272 13.1696124,5.84902806 C14.9194073,5.41583433 16.0941265,4.32586937 16.0941265,2.92451403 C16.0941265,1.30925048 14.7844813,-2.84217094e-14 13.1696124,-2.84217094e-14 C11.6780762,-2.84217094e-14 10.3815043,1.09149429 10.2535837,2.5541213 C10.2497357,2.57646919 10.2474171,2.5996064 10.2474171,2.62274361 C10.2474171,2.62545693 10.2466277,2.62812092 10.2466277,2.6312289 C10.2466277,2.92185005 10.4824892,3.15731681 10.7731103,3.15731681 C11.0637314,3.15731681 11.2995929,2.92185005 11.2995929,2.6312289 L11.3026515,2.6312289 C11.3450286,2.17603261 11.5662875,1.84959566 11.7605118,1.64609672 C12.1197059,1.26879736 12.6338552,1.05257049 13.1695631,1.05257049 C14.2017097,1.05257049 15.0411613,1.89236743 15.0411613,2.92451403 C15.0411613,3.3183893 14.8769808,3.67955675 14.5516785,3.99790308 C14.1716659,4.36982514 13.6066541,4.6565983 12.9167311,4.82729074 C12.9167311,4.82729074 12.1173873,5.07395612 12.1035247,5.07898809 L12.1035247,5.26206313 L12.1027353,5.26206313 L12.1027353,6.5936615 L0.997465448,12.4612388 C0.401620565,12.7679919 0,13.3445968 0,14.0059561 C0,14.9895589 0.888784683,15.7865841 1.98486695,15.7865841 C2.00489618,15.7865841 2.04421464,15.7865841 2.04421464,15.7865841 L23.2150599,15.7865841 C23.2150599,15.7865841 23.2543783,15.7865841 23.2744076,15.7865841 C24.3705392,15.7865841 25.2585345,14.9895589 25.2585345,14.0059561 C25.2585345,13.3445968 24.8577033,12.7679919 24.2618584,12.4612388 Z M23.2744076,14.7336189 L23.2150599,14.7336189 L2.04426397,14.7336189 L1.98491628,14.7336189 C1.48004159,14.7336189 1.05296516,14.4006207 1.05296516,14.0059561 C1.05296516,13.7623493 1.21250832,13.5342332 1.47999226,13.3954592 L1.48462957,13.3939299 L1.48926687,13.3908713 L12.6285273,7.50597806 L23.7701063,13.3908713 L23.7747436,13.3939299 L23.7793809,13.3954592 C24.0468649,13.5341839 24.206408,13.7623987 24.206408,14.0059561 C24.2063587,14.4006207 23.7793316,14.7336189 23.2744076,14.7336189 Z" id="Shape"></path>
                </g>
            </g>
        </g>
    </g>
</svg>