<?xml version="1.0" standalone="no"?>
<!DOCTYPE svg PUBLIC "-//W3C//DTD SVG 1.1//EN" "http://www.w3.org/Graphics/SVG/1.1/DTD/svg11.dtd" >
<svg xmlns="http://www.w3.org/2000/svg" xmlns:xlink="http://www.w3.org/1999/xlink" version="1.1">
<metadata></metadata>
<defs>
<font id="sf_compact_displaybold" horiz-adv-x="1212" >
<font-face units-per-em="2048" ascent="1638" descent="-410" />
<missing-glyph horiz-adv-x="402" />
<glyph horiz-adv-x="0" />
<glyph unicode="&#xd;" horiz-adv-x="0" />
<glyph unicode=" "  horiz-adv-x="402" />
<glyph unicode="&#x09;" horiz-adv-x="402" />
<glyph unicode="&#xa0;" horiz-adv-x="402" />
<glyph unicode="!" horiz-adv-x="565" d="M124 127q0 64 46 105t113 41t112.5 -41t45.5 -105q0 -65 -45.5 -106t-112.5 -41t-113 41t-46 106zM128 1365h309l-33 -948h-244z" />
<glyph unicode="&#x22;" horiz-adv-x="880" d="M113 1365h259l-33 -513h-193zM509 1365h260l-34 -513h-192z" />
<glyph unicode="#" horiz-adv-x="1237" d="M40 364l39 204h196l49 244h-188l39 204h190l69 349h214l-71 -349h219l69 349h213l-70 -349h204l-38 -204h-207l-49 -244h198l-39 -204h-200l-72 -364h-212l72 364h-218l-74 -364h-211l72 364h-194zM463 546h259l57 288h-258z" />
<glyph unicode="$" d="M87 393h237q5 -78 60 -131.5t155 -66.5v406l-84 20q-70 16 -128.5 44.5t-107.5 73t-76.5 110t-27.5 146.5q0 170 117 270.5t304 118.5v129h154v-130q183 -19 296.5 -124t116.5 -262h-232q-2 70 -51 123.5t-133 66.5v-382l83 -19q80 -18 142 -46.5t112.5 -73t77 -110 t26.5 -150.5q0 -176 -118.5 -282.5t-321.5 -125.5v-127h-154l1 125q-115 9 -203.5 46t-140 93t-77.5 121t-27 137zM358 1013q0 -115 145 -166q20 -7 36 -11v352q-81 -10 -131 -56t-50 -119zM687 194q90 8 145 58t55 131q0 67 -42 112t-135 72q-7 2 -23 6v-379z" />
<glyph unicode="%" horiz-adv-x="1550" d="M78 1020v31q0 143 81 236.5t217 93.5q135 0 215 -93t80 -239v-31q0 -140 -80 -236.5t-219 -96.5q-136 0 -215 94.5t-79 240.5zM147 -1l559 717l493 649h209l-549 -703l-503 -663h-209zM255 1030q0 -90 32 -140t87 -50q54 0 86.5 49.5t32.5 138.5v11q0 90 -31.5 139 t-86.5 49q-56 0 -88 -49t-32 -137v-11zM880 319v31q0 144 81 237.5t216 93.5q136 0 215.5 -93t79.5 -239v-31q0 -141 -80 -237.5t-219 -96.5q-135 0 -214 94.5t-79 240.5zM1057 329q0 -90 32 -140t87 -50q54 0 86 49.5t32 139.5v11q0 90 -31.5 138.5t-86.5 48.5 q-56 0 -87.5 -49t-31.5 -137v-11z" />
<glyph unicode="&#x26;" horiz-adv-x="1362" d="M66 355q0 84 33.5 153.5t86.5 117.5t131 92q40 22 62 32q-84 87 -126.5 157.5t-42.5 153.5q0 137 110.5 226.5t274.5 89.5q100 0 184.5 -34.5t139.5 -107.5t55 -170q0 -63 -22 -117t-64 -97t-86.5 -74.5t-103.5 -63.5l260 -282q48 87 48 267v70h228v-86q0 -262 -114 -418 l252 -264h-306l-105 112q-78 -68 -188 -104t-232 -36q-215 0 -345 104t-130 279zM321 377q0 -97 71 -151.5t176 -54.5q70 0 138.5 24.5t111.5 71.5l-313 340q-21 -10 -37 -19q-147 -82 -147 -211zM445 1047q0 -47 28 -92t98 -115q86 45 130.5 92.5t44.5 114.5t-42.5 107.5 t-107.5 40.5q-66 0 -108.5 -41.5t-42.5 -106.5z" />
<glyph unicode="'" horiz-adv-x="457" d="M99 1365h259l-33 -513h-193z" />
<glyph unicode="(" horiz-adv-x="686" d="M113 566q0 127 17 238t40.5 187.5t63 152.5t69 119t74.5 100h259q-35 -40 -71.5 -104t-75.5 -161.5t-64 -236.5t-25 -293q0 -104 10 -199.5t32.5 -178.5t41 -142t52.5 -128t49 -97t48 -85h-265q-46 56 -85.5 125t-80.5 170.5t-65 239.5t-24 293z" />
<glyph unicode=")" horiz-adv-x="686" d="M50 1363h257q45 -57 75 -100t70 -119t63.5 -152.5t40.5 -187.5t17 -238q0 -155 -24 -293t-65.5 -239.5t-81.5 -170.5t-86 -125h-264q38 65 58.5 103.5t58.5 126t59.5 165.5t38.5 194.5t17 240.5q0 154 -24.5 293t-63.5 236.5t-75 161.5t-71 104z" />
<glyph unicode="*" horiz-adv-x="930" d="M139 942l211 89l-211 89l86 149l186 -143l-31 233h171l-31 -233l187 143l85 -148l-212 -90l212 -89l-85 -149l-186 139l30 -228h-171l29 227l-184 -138z" />
<glyph unicode="+" horiz-adv-x="1185" d="M80 441v238h391v405h243v-405h392v-238h-392v-419h-243v419h-391z" />
<glyph unicode="," horiz-adv-x="456" d="M16 -268l92 485h269l-147 -485h-214z" />
<glyph unicode="-" horiz-adv-x="788" d="M79 435v250h630v-250h-630z" />
<glyph unicode="." horiz-adv-x="543" d="M109 141q0 67 48 115t115 48q68 0 115.5 -48t47.5 -115t-48 -115t-115 -48t-115 48t-48 115z" />
<glyph unicode="/" horiz-adv-x="685" d="M-14 -289l460 1726h252l-459 -1726h-253z" />
<glyph unicode="0" horiz-adv-x="1198" d="M75 637v92q0 302 139.5 482t387.5 180q249 0 385 -179t136 -483v-92q0 -192 -57.5 -339.5t-178 -235.5t-290.5 -88q-249 0 -385.5 180t-136.5 483zM364 638q0 -209 63 -319t172 -110t172 110t63 319v90q0 208 -63 318t-172 110t-172 -109.5t-63 -318.5v-90z" />
<glyph unicode="1" horiz-adv-x="847" d="M84 892v262q41 30 166 110.5t163 100.5h280v-1365h-286v1095h-11q-26 -14 -150 -95t-162 -108z" />
<glyph unicode="2" horiz-adv-x="1148" d="M90 952v15q0 80 29.5 154.5t86 135.5t149.5 97.5t210 36.5q212 0 343 -109t131 -275q0 -35 -7 -69.5t-13.5 -60t-26.5 -60t-29 -50.5t-39 -52.5t-38 -46t-45.5 -49.5t-42.5 -46l-297 -331v-9h562v-233h-954v179l492 528q37 39 56 61.5t45.5 60t38.5 74.5t12 76 q0 79 -55 130.5t-139 51.5q-89 0 -142.5 -56t-53.5 -136q0 -3 0.5 -9.5t0.5 -7.5h-274z" />
<glyph unicode="3" horiz-adv-x="1172" d="M69 385h266q8 -82 71.5 -134.5t167.5 -52.5q109 0 173.5 56.5t63.5 143.5t-64.5 141t-175.5 54h-148v220h141q94 0 151.5 51t57.5 132q-1 76 -57.5 125t-147.5 49q-94 0 -148 -55t-57 -127h-270q5 176 133 289.5t352 113.5q206 0 341 -100t137 -256q1 -69 -22.5 -128 t-61 -96t-79.5 -59.5t-83 -28.5v-11q50 -4 99 -25.5t92 -60t70 -102t28 -141.5q1 -121 -71.5 -215.5t-193.5 -144.5t-267 -50q-122 0 -218 33t-155.5 90.5t-91 131t-33.5 157.5z" />
<glyph unicode="4" horiz-adv-x="1213" d="M66 247v232q191 362 520 886h411v-887h164v-231h-164v-247h-271v247h-660zM324 478h402v673h-11q-234 -369 -391 -670v-3z" />
<glyph unicode="5" horiz-adv-x="1213" d="M108 372h266q12 -79 76.5 -125t162.5 -46q97 0 170 69t73 181q0 110 -69 179t-173 69q-89 0 -148 -41t-85 -96h-255l63 804h850v-231h-620l-33 -337h11q29 43 106.5 80t185.5 37q120 0 222 -53.5t165 -158t63 -239.5q0 -222 -149 -356t-384 -134q-227 0 -359.5 114 t-138.5 284z" />
<glyph unicode="6" horiz-adv-x="1177" d="M76 655q0 352 145.5 543t399.5 191q105 0 192.5 -33.5t142.5 -87.5t86 -117.5t35 -128.5h-270q-7 56 -60 99.5t-133 43.5q-128 0 -198.5 -127.5t-68.5 -336.5h1h11q33 79 113.5 137.5t205.5 58.5q114 0 210.5 -50t158.5 -153t62 -241q0 -149 -67.5 -259t-180 -165 t-252.5 -55q-250 0 -390 175q-143 179 -143 506zM381 441q0 -111 65.5 -176t162.5 -65q96 0 160.5 64t64.5 177q0 112 -65.5 177t-160.5 65q-98 0 -162.5 -66t-64.5 -176z" />
<glyph unicode="7" horiz-adv-x="1110" d="M70 1132v233h955v-238l-553 -1127h-304l572 1124v8h-670z" />
<glyph unicode="8" horiz-adv-x="1225" d="M75 376q0 77 27 140.5t71 103t92 63t99 33.5v9q-102 31 -168 107t-66 198q0 158 133 259.5t350 101.5t350.5 -101.5t133.5 -259.5q0 -123 -67 -198.5t-168 -106.5v-9q51 -10 99 -34t92 -63.5t70.5 -102t26.5 -139.5q0 -179 -147.5 -291t-391.5 -112t-390 111.5 t-146 290.5zM363 396q0 -96 71.5 -156.5t178.5 -60.5q108 0 179 60.5t71 156.5q0 97 -71 158t-179 61q-107 0 -178.5 -61.5t-71.5 -157.5zM406 997q0 -83 59 -136.5t148 -53.5q90 0 148.5 53t58.5 137q0 83 -58.5 135t-148.5 52q-89 0 -148 -52.5t-59 -134.5z" />
<glyph unicode="9" horiz-adv-x="1177" d="M76 916q0 147 69.5 256.5t180 163.5t244.5 54q255 0 396.5 -174.5t141.5 -517.5q0 -338 -143 -530.5t-402 -192.5q-110 0 -200.5 34.5t-146.5 90.5t-86.5 121t-34.5 131h269q10 -62 65.5 -107t139.5 -45q71 0 125.5 38t85.5 104t45.5 148t11.5 177h-14 q-26 -81 -109.5 -138.5t-215.5 -57.5q-84 0 -159.5 29.5t-134.5 84t-93.5 140.5t-34.5 191zM351 924q0 -113 63.5 -176.5t160.5 -63.5t163.5 67.5t66.5 169.5q0 115 -63.5 179.5t-163.5 64.5q-96 0 -161.5 -64t-65.5 -177z" />
<glyph unicode=":" horiz-adv-x="567" d="M119 141q0 67 47.5 115t115.5 48q67 0 115 -48t48 -115t-48 -115t-115 -48t-115 48t-48 115zM119 813q0 67 47.5 115t115.5 48q67 0 115 -48t48 -115t-48 -115t-115 -48t-115 48t-48 115z" />
<glyph unicode=";" horiz-adv-x="565" d="M59 -314l89 541h273l-148 -541h-214zM123 813q0 67 47.5 115t115.5 48q67 0 115 -48t48 -115t-48 -115t-115 -48t-115 48t-48 115z" />
<glyph unicode="&#x3c;" horiz-adv-x="1185" d="M124 439v180l933 512v-280l-607 -310v-12l607 -303v-276z" />
<glyph unicode="=" horiz-adv-x="1185" d="M119 224v221h948v-221h-948zM119 657v222h948v-222h-948z" />
<glyph unicode="&#x3e;" horiz-adv-x="1185" d="M124 -50v276l607 303v12l-607 310v280l933 -512v-180z" />
<glyph unicode="?" horiz-adv-x="982" d="M39 983q-4 107 34 188.5t105 128t147.5 69.5t171.5 23q123 0 222 -39t162 -124t63 -204q0 -62 -16 -112.5t-49 -90t-61 -63.5t-74 -56q-99 -69 -130.5 -108t-31.5 -116v-51h-252l-2 56q-8 108 38 186t138 140q44 30 65.5 47t45.5 42t33.5 51.5t9.5 59.5q0 80 -51 120.5 t-126 40.5q-87 0 -134.5 -52.5t-48.5 -135.5h-259zM301 127q0 64 46 105t113 41t113 -41t46 -105q0 -65 -46 -106t-113 -41t-113 41t-46 106z" />
<glyph unicode="@" horiz-adv-x="1717" d="M92 499v51q0 232 100.5 410t279 274t408.5 96h8q175 0 319.5 -56.5t237 -152.5t143 -219t50.5 -260v-49q0 -205 -97 -332.5t-261 -127.5q-93 0 -162.5 40t-87.5 106h-9q-19 -65 -82.5 -105t-147.5 -40q-130 0 -205.5 88.5t-75.5 239.5v113q0 145 76.5 233t207.5 88 q89 0 142.5 -41.5t69.5 -97.5h8v125h190v-498q0 -48 28.5 -75t73.5 -27q65 0 111 82.5t46 241.5v29q0 110 -40 207.5t-112.5 171t-181.5 116.5t-240 43h-9q-272 0 -440.5 -172t-168.5 -458v-38q0 -125 32 -227.5t87.5 -173.5t131.5 -119.5t162.5 -71t182.5 -22.5h9 q185 0 284 43v-157q-93 -42 -294 -42h-9q-163 0 -302 50t-242.5 144t-162 240.5t-58.5 329.5zM716 492q0 -192 140 -192q138 0 138 180v83q0 86 -39.5 129.5t-100.5 43.5q-64 0 -101 -47t-37 -142v-55z" />
<glyph unicode="A" horiz-adv-x="1273" d="M14 0l452 1365h344l450 -1365h-308l-101 339h-444l-102 -339h-291zM464 552h331l-158 541h-13z" />
<glyph unicode="B" horiz-adv-x="1266" d="M141 0v1365h581q186 0 297.5 -90t111.5 -245q0 -121 -65.5 -197.5t-171.5 -101.5v-13q129 -12 217 -98t88 -234q0 -180 -132 -283t-343 -103h-583zM428 213h193q148 0 216 48.5t68 144.5q0 94 -61 147t-175 53h-241v-393zM428 802h172q247 0 247 178q0 80 -51 126.5 t-143 46.5h-225v-351z" />
<glyph unicode="C" horiz-adv-x="1286" d="M86 604v153q0 296 151.5 465t426.5 169q238 0 390.5 -134.5t152.5 -349.5v-29h-278q-2 120 -73 195t-190 75q-137 0 -211.5 -101.5t-74.5 -289.5v-154q0 -186 74.5 -286t211.5 -100q119 0 190 72t73 186h278v-30q0 -208 -153 -339.5t-390 -131.5q-275 0 -426.5 168 t-151.5 462z" />
<glyph unicode="D" horiz-adv-x="1336" d="M141 0v1365h511q308 0 460 -175t152 -503q0 -330 -153 -508.5t-459 -178.5h-511zM431 234h179q84 0 147 22t111.5 72.5t73.5 139t25 213.5q0 215 -83.5 332.5t-273.5 117.5h-179v-897z" />
<glyph unicode="E" horiz-adv-x="1133" d="M141 0v1365h891v-234h-604v-332h568v-218h-568v-347h604v-234h-891z" />
<glyph unicode="F" horiz-adv-x="1077" d="M141 0v1365h883v-236h-593v-364h541v-231h-541v-534h-290z" />
<glyph unicode="G" horiz-adv-x="1311" d="M86 602v178q0 279 155 445t433 166q126 0 229.5 -37.5t171.5 -102t106 -148.5t42 -179h-282q-12 102 -82.5 164t-185.5 62q-141 0 -218 -97.5t-77 -275.5v-174q0 -119 30 -203.5t99 -134.5t174 -50q123 0 196 67.5t73 168.5v78h-267v211h542v-270q0 -100 -36 -189 t-103 -158t-173.5 -109t-237.5 -40q-149 0 -262.5 46t-184.5 130.5t-106.5 198t-35.5 253.5z" />
<glyph unicode="H" horiz-adv-x="1412" d="M141 0v1365h290v-550h550v550h290v-1365h-290v577h-550v-577h-290z" />
<glyph unicode="I" horiz-adv-x="572" d="M141 0v1365h290v-1365h-290z" />
<glyph unicode="J" horiz-adv-x="1083" d="M26 405h278q2 -81 48 -128t130 -47q93 0 136.5 55.5t43.5 166.5v913h290v-917q0 -231 -123 -352.5t-345 -121.5q-112 0 -200.5 35t-144 95t-84.5 137t-29 164z" />
<glyph unicode="K" horiz-adv-x="1273" d="M141 0v1365h290v-601h13l501 601h315l-483 -589l503 -776h-346l-369 584l-134 -154v-430h-290z" />
<glyph unicode="L" horiz-adv-x="1025" d="M141 0v1365h290v-1120h569v-245h-859z" />
<glyph unicode="M" horiz-adv-x="1640" d="M144 0v1365h296l377 -846h9l377 846h294v-1365h-261v884h-12l-314 -702h-181l-315 702h-12v-884h-258z" />
<glyph unicode="N" horiz-adv-x="1385" d="M141 0v1365h237l587 -876h10v876h269v-1365h-236l-588 882h-10v-882h-269z" />
<glyph unicode="O" horiz-adv-x="1358" d="M86 593v170q0 292 158 460t436 168t435 -168.5t157 -459.5v-170q0 -289 -157.5 -454t-436.5 -165q-278 0 -435 165t-157 454zM381 592q0 -185 81.5 -282t216.5 -97q136 0 217 96.5t81 282.5v174q0 186 -81.5 286t-216.5 100t-216.5 -100.5t-81.5 -285.5v-174z" />
<glyph unicode="P" horiz-adv-x="1207" d="M141 0v1365h556q218 0 342.5 -130.5t124.5 -330.5q0 -201 -125 -329t-345 -128h-264v-447h-289zM429 671h153q142 0 215 53t73 180q0 112 -61.5 173t-171.5 61h-208v-467z" />
<glyph unicode="Q" horiz-adv-x="1361" d="M89 599v165q0 289 160 458t432 169t432.5 -169.5t160.5 -457.5v-165q0 -311 -186 -480l170 -251h-283l-95 139q-93 -33 -199 -33q-272 0 -432 168.5t-160 456.5zM373 594q0 -192 82.5 -294t217.5 -105q40 0 76 14l-148 215h261l63 -85q65 99 65 255v172q0 187 -85 287 t-224 100q-138 0 -223 -100t-85 -287v-172z" />
<glyph unicode="R" horiz-adv-x="1270" d="M141 0v1365h556q120 0 214 -33.5t152.5 -92.5t89 -137.5t30.5 -172.5q0 -65 -16.5 -122.5t-41.5 -98.5t-59 -75t-66 -54.5t-64 -33.5l274 -545h-322l-237 502h-225v-502h-285zM426 715h225q110 0 172 54t62 155q0 105 -63.5 161.5t-166.5 56.5h-229v-427z" />
<glyph unicode="S" horiz-adv-x="1217" d="M59 392h278q6 -81 77.5 -136t194.5 -55q118 0 182.5 48.5t64.5 129.5q0 68 -50 106.5t-158 62.5l-205 47q-76 16 -137 44.5t-110.5 73.5t-77 112t-27.5 151q0 130 69.5 226t185.5 143.5t262 47.5q228 0 369.5 -113.5t143.5 -295.5h-270q-6 78 -69 131.5t-175 53.5 q-105 0 -166 -46t-61 -125q0 -119 186 -157l207 -46q81 -17 143 -44.5t115.5 -72t82 -113t28.5 -158.5q0 -201 -146.5 -317t-400.5 -116q-116 0 -209 25t-152.5 66t-99.5 96.5t-57 112.5t-18 118z" />
<glyph unicode="T" horiz-adv-x="1083" d="M14 1125v240h1055v-240h-383v-1125h-289v1125h-383z" />
<glyph unicode="U" horiz-adv-x="1367" d="M126 463v902h288v-862q0 -135 73.5 -209.5t196.5 -74.5q122 0 195.5 74.5t73.5 209.5v862h289v-902q0 -221 -150 -355t-408 -134t-408 134t-150 355z" />
<glyph unicode="V" horiz-adv-x="1261" d="M7 1365h335l292 -1044h12l288 1044h321l-446 -1365h-353z" />
<glyph unicode="W" horiz-adv-x="1762" d="M5 1365h306l201 -955h11l236 955h246l235 -955h12l200 955h305l-357 -1365h-267l-246 921h-10l-247 -921h-268z" />
<glyph unicode="X" horiz-adv-x="1197" d="M-12 0l418 688l-416 677h341l271 -481h13l269 481h326l-431 -684l425 -681h-330l-280 472h-13l-280 -472h-313z" />
<glyph unicode="Y" horiz-adv-x="1165" d="M-19 1365h319l281 -573h10l282 573h311l-457 -853v-512h-289v505z" />
<glyph unicode="Z" horiz-adv-x="1183" d="M84 0v188l646 931v11h-630v235h980v-187l-644 -931v-12h664v-235h-1016z" />
<glyph unicode="[" horiz-adv-x="730" d="M113 -228v1593h546v-206h-277v-1182h290v-205h-559z" />
<glyph unicode="\" horiz-adv-x="685" d="M-14 1437h253l459 -1726h-252z" />
<glyph unicode="]" horiz-adv-x="730" d="M58 -23h290v1182h-278v206h547v-1593h-559v205z" />
<glyph unicode="^" horiz-adv-x="897" d="M36 795l294 570h240l291 -570h-244l-164 348h-11l-168 -348h-238z" />
<glyph unicode="_" horiz-adv-x="856" d="M-27 -103h910v-215h-910v215z" />
<glyph unicode="`" horiz-adv-x="948" d="M239 1483h243l207 -294h-196z" />
<glyph unicode="a" horiz-adv-x="1102" d="M73 307q0 146 98.5 230t280.5 84h256v94q0 75 -43.5 115.5t-121.5 40.5q-76 0 -120 -37.5t-48 -99.5h-263q3 70 27.5 129.5t73.5 109.5t135 78.5t200 28.5q127 0 223.5 -37.5t155 -121.5t58.5 -206v-715h-265v129h-12q-33 -64 -104 -104.5t-181 -40.5q-157 0 -253.5 87 t-96.5 236zM352 327q0 -67 48 -104t116 -37q81 0 136.5 45.5t55.5 116.5v110h-189q-81 0 -124 -35.5t-43 -95.5z" />
<glyph unicode="b" horiz-adv-x="1215" d="M130 0v1437h282v-530h12q35 76 117.5 123t187.5 47q184 0 292.5 -129.5t108.5 -368.5v-92q0 -236 -108.5 -368t-293.5 -132q-111 0 -190 47t-118 131h-12v-165h-278zM411 497q0 -139 59.5 -213.5t162.5 -74.5q95 0 151.5 74.5t56.5 212.5v72q0 137 -57 211.5t-151 74.5 q-103 0 -162.5 -73.5t-59.5 -212.5v-71z" />
<glyph unicode="c" horiz-adv-x="1080" d="M83 495v85q0 226 129 364.5t351 138.5q199 0 319.5 -110t125.5 -274h-258q-10 68 -58 115t-117 47q-97 0 -153 -76t-56 -208v-80q0 -137 56.5 -215.5t153.5 -78.5q81 0 125 42.5t53 109.5h258q-15 -182 -135.5 -278t-314.5 -96q-222 0 -350.5 138.5t-128.5 375.5z" />
<glyph unicode="d" horiz-adv-x="1213" d="M85 489v88q0 231 108 365.5t295 134.5q107 0 187 -46.5t115 -124.5h11v531h282v-1437h-278v165h-11q-37 -83 -117.5 -130.5t-188.5 -47.5q-190 0 -296.5 134t-106.5 368zM374 496q0 -139 58 -212.5t154 -73.5q100 0 158.5 74t58.5 211v73q0 134 -59.5 210t-159.5 76 q-95 0 -152.5 -73.5t-57.5 -212.5v-72z" />
<glyph unicode="e" horiz-adv-x="1117" d="M83 491v93q0 234 131.5 366.5t346.5 132.5q219 0 347 -137t128 -368v-105h-677v-32q0 -113 59.5 -180.5t155.5 -67.5q77 0 128.5 35.5t65.5 98.5h259q-7 -52 -27 -101t-58 -94t-88.5 -78t-123 -53t-158.5 -20q-224 0 -356.5 133.5t-132.5 376.5zM359 645h406v2 q0 100 -56 165t-146 65q-91 0 -147.5 -65.5t-56.5 -164.5v-2z" />
<glyph unicode="f" horiz-adv-x="758" d="M58 847v217h154v105q0 161 86.5 231.5t277.5 70.5q52 0 122 -7v-198q-28 4 -66 4q-76 0 -111.5 -28t-35.5 -96v-82h204v-217h-198v-847h-279v847h-154z" />
<glyph unicode="g" horiz-adv-x="1208" d="M87 516v62q0 239 108.5 369t293.5 130q107 0 188 -47.5t114 -124.5h12v159h278v-1057q0 -85 -29.5 -154.5t-78 -114.5t-114 -75.5t-135.5 -43.5t-145 -13q-223 0 -341 91t-128 234h271q13 -55 67 -88.5t135 -33.5q103 0 160 57t57 161v156h-12q-30 -73 -110.5 -120.5 t-188.5 -47.5q-184 0 -293 130t-109 371zM376 509q0 -137 57 -211.5t157 -74.5q98 0 154 74.5t56 211.5v61q0 134 -57 209.5t-153 75.5q-100 0 -157 -74t-57 -211v-61z" />
<glyph unicode="h" horiz-adv-x="1204" d="M130 0v1437h281v-532h12q31 68 107.5 121.5t196.5 53.5q165 0 264.5 -102.5t99.5 -292.5v-685h-281v622q0 113 -55 166.5t-143 53.5q-94 0 -147.5 -61.5t-53.5 -162.5v-618h-281z" />
<glyph unicode="i" horiz-adv-x="554" d="M121 1329q0 63 45 103.5t111 40.5t111.5 -40.5t45.5 -103.5q0 -64 -45.5 -104.5t-111.5 -40.5t-111 40.5t-45 104.5zM137 0v1064h281v-1064h-281z" />
<glyph unicode="j" horiz-adv-x="554" d="M-57 -156q19 -4 57 -4q70 0 103.5 35.5t33.5 115.5v1073h280v-1076q0 -178 -96.5 -265t-265.5 -87q-74 0 -112 8v200zM121 1329q0 63 45 103.5t111 40.5t111.5 -40.5t45.5 -103.5q0 -64 -45.5 -104.5t-111.5 -40.5t-111 40.5t-45 104.5z" />
<glyph unicode="k" horiz-adv-x="1100" d="M128 0v1437h281v-804h13l332 431h324l-382 -459l408 -605h-331l-293 445l-71 -84v-361h-281z" />
<glyph unicode="l" horiz-adv-x="550" d="M134 0v1437h282v-1437h-282z" />
<glyph unicode="m" horiz-adv-x="1791" d="M126 0v1064h274v-157h14q25 69 97 121t184 52q118 0 193.5 -49.5t102.5 -135.5h12q28 75 112.5 130t210.5 55q161 0 252.5 -96t91.5 -256v-728h-281v647q0 98 -47.5 149t-128.5 51q-84 0 -132 -54.5t-48 -154.5v-638h-270v638q0 107 -48.5 158t-129.5 51q-78 0 -128 -52 t-50 -155v-640h-281z" />
<glyph unicode="n" horiz-adv-x="1200" d="M126 0v1064h274v-159h12q30 68 109 121.5t200 53.5q166 0 265 -102.5t99 -292.5v-685h-281v622q0 113 -55.5 166.5t-141.5 53.5q-94 0 -147 -61.5t-53 -162.5v-618h-281z" />
<glyph unicode="o" horiz-adv-x="1151" d="M83 497v75q0 227 131 369t363 142q231 0 361 -141t130 -369v-75q0 -239 -128.5 -378t-362.5 -139q-235 0 -364.5 139t-129.5 377zM368 492q0 -83 20.5 -147t68.5 -106t119 -42q105 0 156.5 83t51.5 212v82q0 132 -52 213t-156 81t-156 -81.5t-52 -212.5v-82z" />
<glyph unicode="p" horiz-adv-x="1207" d="M128 -352v1416h278v-160h12q40 80 119.5 126.5t185.5 46.5q181 0 290 -131.5t109 -368.5v-89q0 -237 -109 -369t-293 -132q-104 0 -181.5 45.5t-116.5 123.5h-12v-508h-282zM408 499q0 -135 59 -212.5t160 -77.5q94 0 150 75t56 215v69q0 137 -55.5 212t-153.5 75 t-157 -76.5t-59 -209.5v-70z" />
<glyph unicode="q" d="M85 494v82q0 236 107.5 368.5t291.5 132.5q112 0 193 -46t118 -126h11v159h278v-1417h-282v514h-11q-31 -77 -113.5 -125.5t-195.5 -48.5q-183 0 -290 133.5t-107 373.5zM374 501q0 -138 57 -215.5t155 -77.5q100 0 159 78t59 215v65q0 135 -59 211.5t-160 76.5 q-98 0 -154.5 -75.5t-56.5 -212.5v-65z" />
<glyph unicode="r" horiz-adv-x="785" d="M126 0v1064h282v-150h12q21 63 84.5 114t161.5 51q55 0 87 -8v-242q-33 11 -108 11q-230 0 -230 -244v-596h-289z" />
<glyph unicode="s" horiz-adv-x="1041" d="M70 301h273q8 -58 56 -92.5t127 -34.5q83 0 127.5 35t44.5 87q0 16 -4 29.5t-14 24.5t-20 19.5t-28.5 16t-31.5 12.5t-38 11t-39.5 9t-44 8.5t-43.5 8.5q-78 16 -135 38t-106.5 57.5t-75.5 89.5t-26 126q0 86 35 152.5t96.5 106t137.5 59t164 19.5q190 0 301 -87.5 t111 -238.5h-248q-6 56 -46.5 95t-123.5 39q-73 0 -116.5 -32.5t-43.5 -86.5q0 -17 5 -31t16.5 -25.5t22.5 -20.5t32 -17t35 -13t41 -10.5t40.5 -8.5t43.5 -8t41 -7q79 -14 136 -34.5t103.5 -54.5t70.5 -86.5t24 -123.5q0 -165 -121.5 -258t-337.5 -93q-207 0 -324 88 t-117 232z" />
<glyph unicode="t" horiz-adv-x="775" d="M55 847v217h158v251h273v-251h205v-217h-205v-504q0 -75 35 -104.5t116 -29.5q46 0 58 2v-207q-47 -9 -126 -9q-199 0 -280.5 70.5t-81.5 236.5v545h-152z" />
<glyph unicode="u" horiz-adv-x="1196" d="M115 362v702h282v-628q0 -117 54.5 -166t138.5 -49q87 0 143 56.5t56 161.5v625h281v-1064h-274v158h-13q-28 -71 -106 -122.5t-201 -51.5q-166 0 -263.5 97t-97.5 281z" />
<glyph unicode="v" horiz-adv-x="1035" d="M0 1064h301l205 -791h10l228 791h291l-367 -1064h-321z" />
<glyph unicode="w" horiz-adv-x="1590" d="M24 1064h285l150 -774h12l193 774h265l194 -774h11l151 774h281l-272 -1064h-297l-197 745h-9l-197 -745h-299z" />
<glyph unicode="x" horiz-adv-x="1082" d="M20 1064h324l201 -354h8l201 354h309l-345 -531l340 -533h-314l-207 354h-8l-205 -354h-299l331 533z" />
<glyph unicode="y" horiz-adv-x="1058" d="M2 1064h311l214 -816h11l220 816h298q-338 -1015 -343 -1027l-27 -73q-24 -63 -49 -110.5t-63 -93t-84 -74t-112 -46t-148 -17.5q-95 0 -153 12v200q32 -7 89 -7q94 0 136 34t55 104l8 34z" />
<glyph unicode="z" horiz-adv-x="1006" d="M86 0v162l499 672v10h-488v220h828v-179l-480 -654v-11h494v-220h-853z" />
<glyph unicode="{" horiz-adv-x="804" d="M88 456v256q93 0 125.5 45t32.5 152v178q0 193 99 273.5t312 80.5h100v-203h-41q-117 0 -159.5 -42.5t-42.5 -152.5v-226q0 -106 -49 -158t-149 -61v-28q198 -17 198 -235v-249q0 -110 42.5 -152.5t159.5 -42.5h41v-204h-100q-212 0 -311.5 83.5t-99.5 279.5v209 q0 107 -32.5 152t-125.5 45z" />
<glyph unicode="|" horiz-adv-x="711" d="M229 -299v1736h253v-1736h-253z" />
<glyph unicode="}" horiz-adv-x="805" d="M48 -109h42q116 0 159 42.5t43 152.5v249q0 218 197 235v28q-99 9 -148 61t-49 158v226q0 110 -43 152.5t-159 42.5h-42v203h100q213 0 311.5 -80t98.5 -274v-178q0 -107 33 -152t127 -45v-256q-94 0 -127 -45t-33 -152v-209q0 -196 -99 -279.5t-311 -83.5h-100v204z" />
<glyph unicode="~" horiz-adv-x="1115" d="M56 512q-8 165 70 276t224 111q57 0 106.5 -19.5t84 -46.5t64.5 -54.5t63.5 -47t66.5 -19.5q102 0 108 158h212q4 -172 -73.5 -280t-218.5 -108q-56 0 -106 19.5t-85.5 47t-67 54.5t-65 46.5t-65.5 19.5q-53 0 -78.5 -45t-28.5 -112h-211z" />
<glyph unicode="&#xa2;" d="M123 615v142q0 101 31 186t84 142t121 92t145 45v225h212v-228q154 -17 251 -122.5t100 -242.5h-253q-6 62 -60 113.5t-146 51.5q-105 0 -165.5 -72.5t-60.5 -188.5v-145q0 -122 62 -193.5t166 -71.5q92 0 145.5 44.5t62.5 108.5h253q-3 -143 -102.5 -243t-252.5 -117 v-223h-212v222q-164 18 -272.5 142t-108.5 333z" />
<glyph unicode="&#xa3;" d="M89 583v191h173v245q0 172 115 271t313 99q202 0 315.5 -98.5t116.5 -282.5h-264q-2 68 -45.5 111.5t-119.5 43.5q-82 0 -123.5 -49t-41.5 -128v-212h291v-191h-291l-1 -142q-3 -160 -85 -198v-16h687v-227h-1028v236q38 4 64.5 14.5t50 33t35 64.5t11.5 103v132h-173z " />
<glyph unicode="&#xa5;" d="M4 1365h319l279 -573h12l282 573h310l-379 -704h212v-175h-289v-118h289v-174h-289v-194h-289v194h-285v174h285v118h-285v175h206z" />
<glyph unicode="&#xa8;" horiz-adv-x="946" d="M161 1310q0 52 33 85.5t83 33.5q51 0 84.5 -33.5t33.5 -85.5q0 -50 -33.5 -83t-84.5 -33q-50 0 -83 33t-33 83zM551 1310q0 52 32 85.5t82 33.5q52 0 86 -33.5t34 -85.5q0 -50 -34 -83t-86 -33q-49 0 -81.5 33t-32.5 83z" />
<glyph unicode="&#xa9;" horiz-adv-x="1640" d="M103 644v103q0 142 54 268t148 218t229 145.5t289 53.5q155 0 290 -54t228.5 -146.5t147.5 -218.5t54 -266v-103q0 -151 -53 -282t-146.5 -224.5t-228.5 -147.5t-292 -54q-209 0 -374 92t-255.5 253.5t-90.5 362.5zM237 642q0 -252 161.5 -413t423.5 -161t425 161 t163 413v105q0 114 -43 215.5t-119.5 176t-187 118t-238.5 43.5t-238 -43t-185.5 -117.5t-118.5 -176t-43 -216.5v-105zM480 632v99q0 155 98 243.5t251 88.5q140 0 229.5 -80t91.5 -190h-175q-4 45 -40 80t-105 35q-168 0 -168 -183v-94q0 -88 45.5 -131t122.5 -43 q68 0 105 27t43 72h174q-2 -108 -89 -183.5t-234 -75.5q-154 0 -251.5 88t-97.5 247z" />
<glyph unicode="&#xab;" horiz-adv-x="1298" d="M96 557v8l344 394h250l-339 -393v-6l339 -395h-259zM602 557v8l344 394h250l-339 -393v-6l339 -395h-259z" />
<glyph unicode="&#xad;" horiz-adv-x="788" d="M79 435v250h630v-250h-630z" />
<glyph unicode="&#xae;" horiz-adv-x="964" d="M72 999v57q0 161 117.5 271t292.5 110q174 0 292 -111t118 -270v-57q0 -170 -115.5 -282t-294.5 -112q-177 0 -293.5 112t-116.5 282zM172 1000q0 -128 88 -213.5t222 -85.5q135 0 223 85.5t88 213.5v54q0 120 -89 204t-222 84t-221.5 -84t-88.5 -204v-54zM322 834v395 h200q62 0 99.5 -35t37.5 -89q0 -43 -22 -75t-55 -44l93 -152h-117l-79 138h-57v-138h-100zM423 1044h61q71 0 71 55q0 53 -64 53h-68v-108z" />
<glyph unicode="&#xb4;" horiz-adv-x="948" d="M271 1189l207 294h243l-255 -294h-195z" />
<glyph unicode="&#xb8;" horiz-adv-x="948" d="M319 -341q47 -14 111 -14q109 0 109 60q0 35 -30 47t-99 12h-55v105l52 136h161l-47 -122q88 0 140 -45t52 -124q0 -97 -66.5 -145.5t-181.5 -50.5q-86 -3 -146 15v126z" />
<glyph unicode="&#xbb;" horiz-adv-x="1298" d="M101 165l339 395v6l-339 393h250l344 -394v-8l-335 -392h-259zM607 165l339 395v6l-339 393h250l344 -394v-8l-335 -392h-259z" />
<glyph unicode="&#x2c6;" horiz-adv-x="946" d="M145 1189l232 311h191l233 -311h-212l-113 172h-6l-114 -172h-211z" />
<glyph unicode="&#x2da;" horiz-adv-x="944" d="M261 1395q0 92 62.5 151t156.5 59t156 -59t62 -151t-62.5 -152t-155.5 -60q-94 0 -156.5 60t-62.5 152zM387 1394q0 -40 26 -66.5t66 -26.5t66.5 26.5t26.5 66.5t-26.5 66.5t-66.5 26.5t-66 -26.5t-26 -66.5z" />
<glyph unicode="&#x2dc;" horiz-adv-x="948" d="M125 1230q0 101 56 172.5t152 71.5q46 0 86.5 -19t64 -41.5t51.5 -41.5t52 -19q33 0 51 29.5t20 74.5h157q0 -102 -61 -176t-160 -74q-46 0 -86 19t-62.5 41.5t-49 41.5t-49.5 19q-19 0 -32.5 -10.5t-20 -27t-9.5 -31t-3 -29.5h-157z" />
<glyph unicode="&#x401;" horiz-adv-x="1153" d="M151 0v1365h891v-234h-604v-332h568v-218h-568v-347h604v-234h-891zM302 1583q0 47 30.5 79.5t75.5 32.5q47 0 79.5 -32.5t32.5 -79.5q0 -46 -32.5 -78t-79.5 -32q-45 0 -75.5 31.5t-30.5 78.5zM654 1583q0 47 31 79.5t77 32.5t78 -32.5t32 -79.5t-32 -78.5t-78 -31.5 t-77 31.5t-31 78.5z" />
<glyph unicode="&#x402;" horiz-adv-x="1541" d="M24 1125v240h1055v-240h-383v-365h11q49 35 135 58.5t163 23.5q214 0 334.5 -113.5t120.5 -316.5q0 -194 -117.5 -311.5t-312.5 -117.5q-107 0 -146 17v223q30 -8 98 -8q83 0 135.5 53t52.5 137q0 100 -58 153t-168 53q-68 0 -138 -23.5t-110 -60.5v-527h-289v1125h-383z " />
<glyph unicode="&#x403;" horiz-adv-x="1094" d="M151 0v1365h878v-236h-588v-1129h-290zM483 1504l208 294h243l-255 -294h-196z" />
<glyph unicode="&#x404;" horiz-adv-x="1311" d="M96 599v164q0 294 154 461t426 167q124 0 228 -38.5t173 -104.5t107 -154t38 -187v-4h-279q-6 99 -75 172t-190 73q-127 0 -204 -89.5t-85 -259.5h481v-216h-482q4 -181 81 -273.5t212 -92.5q123 0 190 68.5t72 169.5h279v-10q0 -94 -37 -178.5t-105 -150t-173 -104 t-232 -38.5q-273 0 -426 164.5t-153 460.5z" />
<glyph unicode="&#x405;" horiz-adv-x="1238" d="M69 392h278q6 -81 77.5 -136t194.5 -55q118 0 182.5 48.5t64.5 129.5q0 68 -50 106.5t-158 62.5l-205 47q-76 16 -137 44.5t-110.5 73.5t-77 112t-27.5 151q0 130 69.5 226t185.5 143.5t262 47.5q228 0 369.5 -113.5t143.5 -295.5h-270q-6 78 -69 131.5t-175 53.5 q-105 0 -166 -46t-61 -125q0 -119 186 -157l207 -46q81 -17 143 -44.5t115.5 -72t82 -113t28.5 -158.5q0 -201 -146.5 -317t-400.5 -116q-116 0 -209 25t-152.5 66t-99.5 96.5t-57 112.5t-18 118z" />
<glyph unicode="&#x406;" horiz-adv-x="592" d="M151 0v1365h290v-1365h-290z" />
<glyph unicode="&#x407;" horiz-adv-x="582" d="M6 1583q0 47 30.5 79.5t75.5 32.5q47 0 79.5 -32.5t32.5 -79.5q0 -46 -32.5 -78t-79.5 -32q-45 0 -75.5 31.5t-30.5 78.5zM146 0v1365h290v-1365h-290zM358 1583q0 47 31 79.5t77 32.5t78 -32.5t32 -79.5t-32 -78.5t-78 -31.5t-77 31.5t-31 78.5z" />
<glyph unicode="&#x408;" horiz-adv-x="1103" d="M36 405h278q2 -81 48 -128t130 -47q93 0 136.5 55.5t43.5 166.5v913h290v-917q0 -231 -123 -352.5t-345 -121.5q-112 0 -200.5 35t-144 95t-84.5 137t-29 164z" />
<glyph unicode="&#x409;" horiz-adv-x="1986" d="M40 0v249q20 -9 51 -9q98 0 133 136t40 482l7 507h918v-447h264q220 0 345 -128t125 -328q0 -201 -124.5 -331.5t-342.5 -130.5h-556v1127h-364l-9 -312q-4 -157 -13.5 -271t-28 -211t-46.5 -159.5t-70 -107t-97.5 -63.5t-130.5 -19q-74 0 -101 16zM1186 228h210 q109 0 171 61t62 172t-62 172t-171 61h-210v-466z" />
<glyph unicode="&#x40a;" horiz-adv-x="2077" d="M151 0v1365h290v-507h550v507h289v-507h262q222 0 347 -117.5t125 -307.5q0 -192 -124.5 -312.5t-344.5 -120.5h-554v620h-550v-620h-290zM1277 228h215q108 0 168 51.5t60 151.5q0 101 -59.5 152.5t-168.5 51.5h-215v-407z" />
<glyph unicode="&#x40b;" horiz-adv-x="1595" d="M24 1125v240h1055v-240h-383v-365h11q46 34 131 58t162 24q218 0 336.5 -122t118.5 -345v-375h-290v360q0 248 -228 248q-65 0 -133 -23.5t-108 -59.5v-525h-289v1125h-383z" />
<glyph unicode="&#x40c;" horiz-adv-x="1297" d="M151 0v1365h290v-560h12l492 560h334l-573 -648l577 -717h-349l-481 587h-12v-587h-290zM583 1504l208 294h243l-255 -294h-196z" />
<glyph unicode="&#x40e;" horiz-adv-x="1183" d="M-9 1365h316l296 -702h12l278 702h299l-435 -984q-63 -141 -123.5 -224.5t-142.5 -128t-192 -44.5q-93 0 -136 16v236q33 -11 100 -11q63 0 111.5 29.5t90.5 99.5zM267 1773h164q0 -73 44 -114.5t130 -41.5t130 41.5t44 114.5h164q0 -135 -89 -217t-249 -82 q-159 0 -248.5 82t-89.5 217z" />
<glyph unicode="&#x40f;" horiz-adv-x="1422" d="M151 0v1365h290v-1126h540v1126h290v-1365h-431v-286h-257v286h-432z" />
<glyph unicode="&#x410;" horiz-adv-x="1293" d="M24 0l452 1365h344l450 -1365h-308l-101 339h-444l-102 -339h-291zM474 552h331l-158 541h-13z" />
<glyph unicode="&#x411;" horiz-adv-x="1240" d="M151 0v1365h893v-236h-604v-276h259q220 0 345 -118t125 -303q0 -188 -124.5 -310t-342.5 -122h-551zM439 228h213q105 0 164 53t59 150q0 96 -59 149.5t-164 53.5h-213v-406z" />
<glyph unicode="&#x412;" horiz-adv-x="1286" d="M151 0v1365h581q186 0 297.5 -90t111.5 -245q0 -121 -65.5 -197.5t-171.5 -101.5v-13q129 -12 217 -98t88 -234q0 -180 -132 -283t-343 -103h-583zM438 213h193q148 0 216 48.5t68 144.5q0 94 -61 147t-175 53h-241v-393zM438 802h172q247 0 247 178q0 80 -51 126.5 t-143 46.5h-225v-351z" />
<glyph unicode="&#x413;" horiz-adv-x="1094" d="M151 0v1365h878v-236h-588v-1129h-290z" />
<glyph unicode="&#x414;" horiz-adv-x="1467" d="M28 239h111q78 54 103.5 180.5t34.5 438.5l17 507h958v-1126h170v-525h-257v286h-880v-286h-257v525zM440 239h528v888h-417l-12 -309q-9 -244 -27.5 -369.5t-71.5 -197.5v-12z" />
<glyph unicode="&#x415;" horiz-adv-x="1153" d="M151 0v1365h891v-234h-604v-332h568v-218h-568v-347h604v-234h-891z" />
<glyph unicode="&#x416;" horiz-adv-x="1919" d="M15 1365h335l460 -560h12v560h279v-560h12l460 560h328l-537 -648l539 -717h-341l-449 587h-12v-587h-279v587h-12l-449 -587h-335l533 707z" />
<glyph unicode="&#x417;" horiz-adv-x="1208" d="M74 400h264q5 -89 76.5 -145.5t185.5 -56.5q112 0 178.5 54t66.5 146q0 93 -67.5 143.5t-183.5 50.5h-167v220h169q96 0 154.5 48.5t58.5 129.5q0 80 -60 130t-154 50q-101 0 -164.5 -56t-67.5 -141h-268q6 185 139.5 301.5t365.5 116.5q223 0 357 -104.5t134 -265.5 q0 -118 -74.5 -198t-194.5 -99v-15q135 -13 222 -101.5t87 -216.5q0 -191 -145 -304.5t-389 -113.5q-233 0 -375.5 119t-147.5 308z" />
<glyph unicode="&#x418;" horiz-adv-x="1432" d="M151 0v1365h280v-917h12l573 917h265v-1365h-280v919h-12l-573 -919h-265z" />
<glyph unicode="&#x419;" horiz-adv-x="1432" d="M151 0v1365h280v-917h12l573 917h265v-1365h-280v919h-12l-573 -919h-265zM389 1782h164q0 -73 44 -114.5t130 -41.5t130 41.5t44 114.5h164q0 -135 -89 -217t-249 -82q-159 0 -248.5 82t-89.5 217z" />
<glyph unicode="&#x41a;" horiz-adv-x="1297" d="M151 0v1365h290v-560h12l492 560h334l-573 -648l577 -717h-349l-481 587h-12v-587h-290z" />
<glyph unicode="&#x41b;" horiz-adv-x="1358" d="M40 0v249q21 -9 51 -9q99 0 133 134t40 484l8 507h935v-1365h-290v1127h-381l-9 -312q-4 -157 -13.5 -271t-28 -211t-46.5 -159.5t-69.5 -107t-97.5 -63.5t-131 -19q-71 0 -101 16z" />
<glyph unicode="&#x41c;" horiz-adv-x="1655" d="M152 0v1365h296l377 -846h9l377 846h294v-1365h-261v884h-12l-314 -702h-181l-315 702h-12v-884h-258z" />
<glyph unicode="&#x41d;" horiz-adv-x="1432" d="M151 0v1365h290v-550h550v550h290v-1365h-290v577h-550v-577h-290z" />
<glyph unicode="&#x41e;" horiz-adv-x="1378" d="M96 593v170q0 292 158 460t436 168t435 -168.5t157 -459.5v-170q0 -289 -157.5 -454t-436.5 -165q-278 0 -435 165t-157 454zM391 592q0 -185 81.5 -282t216.5 -97q136 0 217 96.5t81 282.5v174q0 186 -81.5 286t-216.5 100t-216.5 -100.5t-81.5 -285.5v-174z" />
<glyph unicode="&#x41f;" horiz-adv-x="1412" d="M151 0v1365h1110v-1365h-290v1127h-530v-1127h-290z" />
<glyph unicode="&#x420;" horiz-adv-x="1232" d="M151 0v1365h556q218 0 342.5 -130.5t124.5 -330.5q0 -201 -125 -329t-345 -128h-264v-447h-289zM439 671h153q142 0 215 53t73 180q0 112 -61.5 173t-171.5 61h-208v-467z" />
<glyph unicode="&#x421;" horiz-adv-x="1306" d="M96 604v153q0 296 151.5 465t426.5 169q238 0 390.5 -134.5t152.5 -349.5v-29h-278q-2 120 -73 195t-190 75q-137 0 -211.5 -101.5t-74.5 -289.5v-154q0 -186 74.5 -286t211.5 -100q119 0 190 72t73 186h278v-30q0 -208 -153 -339.5t-390 -131.5q-275 0 -426.5 168 t-151.5 462z" />
<glyph unicode="&#x422;" horiz-adv-x="1103" d="M24 1125v240h1055v-240h-383v-1125h-289v1125h-383z" />
<glyph unicode="&#x423;" horiz-adv-x="1183" d="M-9 1365h316l296 -702h12l278 702h299l-435 -984q-63 -141 -123.5 -224.5t-142.5 -128t-192 -44.5q-93 0 -136 16v236q33 -11 100 -11q63 0 111.5 29.5t90.5 99.5z" />
<glyph unicode="&#x424;" horiz-adv-x="1668" d="M89 682v12q0 249 158 391t445 153v137h279v-138q291 -8 449.5 -148t158.5 -389v-12q0 -251 -159 -392t-449 -152v-154h-279v155q-288 10 -445.5 149.5t-157.5 387.5zM371 682q0 -150 83.5 -227.5t242.5 -83.5v641q-158 -8 -242 -88t-84 -230v-12zM966 370 q160 6 245.5 86.5t85.5 231.5v12q0 150 -85 228t-246 83v-641z" />
<glyph unicode="&#x425;" horiz-adv-x="1217" d="M-2 0l418 688l-416 677h341l271 -481h13l269 481h326l-431 -684l425 -681h-330l-280 472h-13l-280 -472h-313z" />
<glyph unicode="&#x426;" horiz-adv-x="1481" d="M151 0v1365h290v-1126h535v1126h290v-1126h170v-525h-258v286h-202h-825z" />
<glyph unicode="&#x427;" horiz-adv-x="1367" d="M124 975v390h289v-375q0 -253 253 -253q139 0 260 83v545h290v-1365h-290v581h-11q-150 -82 -309 -82q-231 0 -356.5 124t-125.5 352z" />
<glyph unicode="&#x428;" horiz-adv-x="1962" d="M151 0v1365h290v-1126h395v1126h290v-1126h395v1126h290v-1365h-1660z" />
<glyph unicode="&#x429;" horiz-adv-x="2026" d="M151 0v1365h290v-1126h395v1126h290v-1126h395v1126h290v-1126h170v-525h-258v286h-1572z" />
<glyph unicode="&#x42a;" horiz-adv-x="1419" d="M37 1126v239h585v-447h264q219 0 344 -128t125 -328q0 -201 -124 -331.5t-342 -130.5h-556v1126h-296zM618 228h211q109 0 170.5 61t61.5 172t-61.5 172t-170.5 61h-211v-466z" />
<glyph unicode="&#x42b;" horiz-adv-x="1728" d="M151 0v1365h289v-447h262q219 0 344 -128t125 -328q0 -201 -124 -331.5t-342 -130.5h-554zM437 228h208q109 0 170.5 61t61.5 172t-61.5 172t-170.5 61h-208v-466zM1288 0v1365h290v-1365h-290z" />
<glyph unicode="&#x42c;" horiz-adv-x="1237" d="M151 0v1365h289v-447h264q220 0 345 -128t125 -328q0 -201 -124.5 -331.5t-342.5 -130.5h-556zM437 228h210q109 0 171 61t62 172t-62 172t-171 61h-210v-466z" />
<glyph unicode="&#x42d;" horiz-adv-x="1311" d="M89 445v10h279q5 -101 72 -169.5t190 -68.5q131 0 207 86t83 255v25h-479v216h479v5q-7 168 -83.5 256t-203.5 88q-121 0 -190 -73t-75 -172h-279v4q0 99 38 187t107 154t173 104.5t228 38.5q272 0 426 -167t154 -461v-164q0 -296 -153 -460.5t-426 -164.5 q-127 0 -232 38.5t-173 104t-105 150t-37 178.5z" />
<glyph unicode="&#x42e;" horiz-adv-x="1874" d="M151 0v1365h290v-550h179q14 269 166.5 422.5t410.5 153.5q273 0 427 -168.5t154 -459.5v-170q0 -289 -154.5 -454t-428.5 -165q-267 0 -419 160.5t-157 442.5h-178v-577h-290zM908 592q0 -185 78.5 -282t209.5 -97t209.5 97t78.5 282v174q0 185 -79 285.5t-209 100.5 q-131 0 -209.5 -100t-78.5 -286v-174z" />
<glyph unicode="&#x42f;" horiz-adv-x="1293" d="M65 0l312 537q-129 43 -200.5 145.5t-71.5 240.5q0 194 126.5 318t354.5 124h556v-1365h-289v488h-195l-276 -488h-317zM398 925q0 -105 62 -160.5t175 -55.5h222v431h-222q-113 0 -175 -55.5t-62 -159.5z" />
<glyph unicode="&#x430;" horiz-adv-x="1122" d="M83 307q0 146 98.5 230t280.5 84h256v94q0 75 -43.5 115.5t-121.5 40.5q-76 0 -120 -37.5t-48 -99.5h-263q3 70 27.5 129.5t73.5 109.5t135 78.5t200 28.5q127 0 223.5 -37.5t155 -121.5t58.5 -206v-715h-265v129h-12q-33 -64 -104 -104.5t-181 -40.5q-157 0 -253.5 87 t-96.5 236zM362 327q0 -67 48 -104t116 -37q81 0 136.5 45.5t55.5 116.5v110h-189q-81 0 -124 -35.5t-43 -95.5z" />
<glyph unicode="&#x431;" horiz-adv-x="1181" d="M98 523v147q0 157 24 273.5t81.5 211t161 149.5t254.5 70l103 10q108 10 116 53h226q-10 -119 -75.5 -186t-211.5 -81l-118 -12q-175 -17 -243 -92.5t-81 -244.5h12q80 194 321 194q181 0 300.5 -127.5t119.5 -337.5v-68q0 -237 -131.5 -369.5t-362.5 -132.5 q-235 0 -365.5 140.5t-130.5 402.5zM383 479q0 -125 53 -204t158 -79t157.5 79t52.5 204v51q0 123 -53.5 200t-156.5 77t-157 -77.5t-54 -199.5v-51z" />
<glyph unicode="&#x432;" horiz-adv-x="1139" d="M136 0v1064h526q150 0 242 -72t92 -195q0 -95 -51.5 -153.5t-133.5 -75.5v-10q102 -10 170 -77t68 -180q0 -142 -108.5 -221.5t-276.5 -79.5h-528zM411 181h167q195 0 195 140q0 68 -48.5 105.5t-134.5 37.5h-179v-283zM411 633h146q171 0 171 131q0 57 -41 88t-110 31 h-166v-250z" />
<glyph unicode="&#x433;" horiz-adv-x="904" d="M136 0v1064h713v-211h-432v-853h-281z" />
<glyph unicode="&#x434;" horiz-adv-x="1291" d="M33 211h89q58 34 78.5 130.5t29.5 330.5l13 392h841v-853h155v-496h-245v285h-716v-285h-245v496zM409 211h396v642h-315l-8 -187q-9 -203 -23.5 -298.5t-49.5 -145.5v-11z" />
<glyph unicode="&#x435;" horiz-adv-x="1139" d="M93 491v93q0 234 131.5 366.5t346.5 132.5q219 0 347 -137t128 -368v-105h-677v-32q0 -113 59.5 -180.5t155.5 -67.5q77 0 128.5 35.5t65.5 98.5h259q-7 -52 -27 -101t-58 -94t-88.5 -78t-123 -53t-158.5 -20q-224 0 -356.5 133.5t-132.5 376.5zM369 645h406v2 q0 100 -56 165t-146 65q-91 0 -147.5 -65.5t-56.5 -164.5v-2z" />
<glyph unicode="&#x436;" horiz-adv-x="1615" d="M10 0l416 561l-401 503h316l317 -418h9v418h274v-418h10l316 418h311l-394 -496l421 -568h-323l-331 449h-10v-449h-274v449h-9l-332 -449h-316z" />
<glyph unicode="&#x437;" horiz-adv-x="1076" d="M81 331h258q8 -66 55.5 -106t137.5 -40q83 0 132.5 36t49.5 97t-50 95.5t-135 34.5h-121v180h122q72 0 114 34t42 91q0 58 -44 91.5t-115 33.5q-82 0 -127.5 -43t-49.5 -110h-261q8 162 124.5 259.5t312.5 97.5q191 0 310 -83t119 -217q0 -84 -55 -145.5t-144 -75.5v-12 q100 -11 165 -78t65 -166q0 -147 -123.5 -236t-330.5 -89q-208 0 -328.5 100t-122.5 251z" />
<glyph unicode="&#x438;" horiz-adv-x="1229" d="M136 0v1064h267v-661h12l419 661h259v-1064h-267v661h-12l-418 -661h-260z" />
<glyph unicode="&#x439;" horiz-adv-x="1229" d="M136 0v1064h267v-661h12l419 661h259v-1064h-267v661h-12l-418 -661h-260zM308 1515h165q0 -76 38.5 -122t116.5 -46t117 46t39 122h164q0 -135 -84 -224t-236 -89q-151 0 -235.5 89t-84.5 224z" />
<glyph unicode="&#x43a;" horiz-adv-x="1129" d="M136 0v1064h281v-416h11l338 416h326l-412 -501l439 -563h-338l-352 446h-12v-446h-281z" />
<glyph unicode="&#x43b;" horiz-adv-x="1185" d="M53 0v240q21 -8 48 -8q22 0 39.5 7t30.5 24t22.5 36t16 52t11 62.5t7 77t4 86t2.5 99.5l8 388h807v-1064h-281v853h-280l-5 -200q-3 -100 -7.5 -170.5t-14 -145.5t-25 -125t-41 -96.5t-60 -73.5t-83 -42.5t-110.5 -15.5q-24 0 -46 4t-32 8z" />
<glyph unicode="&#x43c;" horiz-adv-x="1494" d="M136 0v1064h323l284 -629h12l284 629h319v-1064h-261v654h-12l-252 -532h-173l-253 532h-12v-654h-259z" />
<glyph unicode="&#x43d;" horiz-adv-x="1219" d="M136 0v1064h281v-412h385v412h281v-1064h-281v441h-385v-441h-281z" />
<glyph unicode="&#x43e;" horiz-adv-x="1171" d="M93 497v75q0 227 131 369t363 142q231 0 361 -141t130 -369v-75q0 -239 -128.5 -378t-362.5 -139q-235 0 -364.5 139t-129.5 377zM378 492q0 -83 20.5 -147t68.5 -106t119 -42q105 0 156.5 83t51.5 212v82q0 132 -52 213t-156 81t-156 -81.5t-52 -212.5v-82z" />
<glyph unicode="&#x43f;" horiz-adv-x="1209" d="M136 0v1064h937v-1064h-281v853h-375v-853h-281z" />
<glyph unicode="&#x440;" horiz-adv-x="1223" d="M137 -352v1416h278v-160h12q40 80 119.5 126.5t185.5 46.5q181 0 290 -131.5t109 -368.5v-89q0 -237 -109 -369t-293 -132q-104 0 -181.5 45.5t-116.5 123.5h-12v-508h-282zM417 499q0 -135 59 -212.5t160 -77.5q94 0 150 75t56 215v69q0 137 -55.5 212t-153.5 75 t-157 -76.5t-59 -209.5v-70z" />
<glyph unicode="&#x441;" horiz-adv-x="1102" d="M93 495v85q0 226 129 364.5t351 138.5q199 0 319.5 -110t125.5 -274h-258q-10 68 -58 115t-117 47q-97 0 -153 -76t-56 -208v-80q0 -137 56.5 -215.5t153.5 -78.5q81 0 125 42.5t53 109.5h258q-15 -182 -135.5 -278t-314.5 -96q-222 0 -350.5 138.5t-128.5 375.5z" />
<glyph unicode="&#x442;" horiz-adv-x="992" d="M45 853v211h902v-211h-310v-853h-281v853h-311z" />
<glyph unicode="&#x443;" horiz-adv-x="1078" d="M12 1064h311l214 -816h11l220 816h298q-338 -1015 -343 -1027l-27 -73q-24 -63 -49 -110.5t-63 -93t-84 -74t-112 -46t-148 -17.5q-95 0 -153 12v200q32 -7 89 -7q94 0 136 34t55 104l8 34z" />
<glyph unicode="&#x444;" horiz-adv-x="1537" d="M93 502v64q0 230 147.5 369.5t392.5 144.5v257h271v-257q251 -5 395.5 -139.5t144.5 -378.5v-64q0 -230 -147.5 -370t-392.5 -145v-335h-271v335q-250 5 -395 140t-145 379zM368 501q0 -130 67 -215.5t203 -91.5v676q-133 -6 -201.5 -91.5t-68.5 -216.5v-61zM899 194 q133 6 201.5 91t68.5 216v61q0 131 -67 216.5t-203 91.5v-676z" />
<glyph unicode="&#x445;" horiz-adv-x="1102" d="M30 1064h324l201 -354h8l201 354h309l-345 -531l340 -533h-314l-207 354h-8l-205 -354h-299l331 533z" />
<glyph unicode="&#x446;" horiz-adv-x="1281" d="M136 0v1064h281v-853h375v853h281v-853h155v-496h-245v285h-847z" />
<glyph unicode="&#x447;" horiz-adv-x="1177" d="M119 707v357h281v-325q0 -79 43 -125t120 -46q65 0 116.5 24t78.5 65v407h283v-1064h-283v430h-14q-46 -42 -118 -64t-153 -22q-169 0 -261.5 98.5t-92.5 264.5z" />
<glyph unicode="&#x448;" horiz-adv-x="1684" d="M136 0v1064h276v-853h292v853h276v-853h292v853h276v-1064h-1412z" />
<glyph unicode="&#x449;" horiz-adv-x="1761" d="M136 0v1064h276v-853h292v853h276v-853h292v853h276v-853h160v-496h-245v285h-1327z" />
<glyph unicode="&#x44a;" horiz-adv-x="1228" d="M45 853v211h524v-332h181q189 0 301 -99t112 -267q0 -167 -112 -266.5t-301 -99.5h-462v853h-243zM565 208h140q80 0 128.5 44t48.5 115q0 72 -48.5 114.5t-129.5 42.5h-139v-316z" />
<glyph unicode="&#x44b;" horiz-adv-x="1543" d="M136 0v1064h281v-332h179q189 0 301 -99t112 -267q0 -167 -112 -266.5t-301 -99.5h-460zM414 208h139q81 0 129.5 43.5t48.5 115.5t-48.5 114.5t-129.5 42.5h-139v-316zM1126 0v1064h281v-1064h-281z" />
<glyph unicode="&#x44c;" horiz-adv-x="1077" d="M136 0v1064h281v-332h181q190 0 301.5 -99t111.5 -267q0 -167 -111.5 -266.5t-301.5 -99.5h-462zM414 208h139q81 0 129.5 43.5t48.5 115.5t-48.5 114.5t-129.5 42.5h-139v-316z" />
<glyph unicode="&#x44d;" horiz-adv-x="1106" d="M81 333h260q27 -130 182 -130q90 0 144 61t60 168v18h-351v171h352v6q-6 109 -59 171t-146 62q-81 0 -124.5 -40.5t-54.5 -96.5h-259q9 155 128 257.5t318 102.5q223 0 352.5 -132.5t129.5 -352.5v-124q0 -233 -130 -363t-351 -130q-198 0 -317.5 94t-133.5 258z" />
<glyph unicode="&#x44e;" horiz-adv-x="1616" d="M136 0v1064h281v-412h152q17 197 145.5 314t327.5 117q218 0 349.5 -133.5t131.5 -359.5v-110q0 -236 -130 -367.5t-351 -131.5q-207 0 -334 116t-141 326v18h-150v-441h-281zM843 479q0 -122 50 -202t149 -80q98 0 147.5 80t49.5 202v106q0 123 -50.5 202.5t-146.5 79.5 q-97 0 -148 -79.5t-51 -202.5v-106z" />
<glyph unicode="&#x44f;" horiz-adv-x="1142" d="M70 0l268 403q-106 33 -164 114t-58 197q0 158 112 254t301 96h477v-1064h-281v355h-112l-234 -355h-309zM392 702q0 -70 48.5 -112t129.5 -42h155v310h-156q-80 0 -128.5 -42.5t-48.5 -113.5z" />
<glyph unicode="&#x451;" horiz-adv-x="1139" d="M93 491v93q0 234 131.5 366.5t346.5 132.5q219 0 347 -137t128 -368v-105h-677v-32q0 -113 59.5 -180.5t155.5 -67.5q77 0 128.5 35.5t65.5 98.5h259q-7 -52 -27 -101t-58 -94t-88.5 -78t-123 -53t-158.5 -20q-224 0 -356.5 133.5t-132.5 376.5zM264 1310q0 52 33 85.5 t83 33.5q51 0 84.5 -33.5t33.5 -85.5q0 -50 -33.5 -83t-84.5 -33q-50 0 -83 33t-33 83zM369 645h406v2q0 100 -56 165t-146 65q-91 0 -147.5 -65.5t-56.5 -164.5v-2zM654 1310q0 52 32 85.5t82 33.5q52 0 86 -33.5t34 -85.5q0 -50 -34 -83t-86 -33q-49 0 -81.5 33t-32.5 83z " />
<glyph unicode="&#x452;" horiz-adv-x="1224" d="M28 1164v161h123v112h261v-112h235v-161h-226v-287h14q10 32 31.5 64.5t58 65t95.5 53t130 20.5q161 0 256.5 -95.5t95.5 -276.5v-720q0 -178 -96.5 -265t-266.5 -87q-73 0 -111 8v200q19 -4 57 -4q69 0 102.5 35.5t33.5 115.5v640q0 110 -52 162t-136 52q-96 0 -154 -70 t-58 -186v-589h-281v1164h-112z" />
<glyph unicode="&#x453;" horiz-adv-x="912" d="M136 0v1064h713v-211h-432v-853h-281zM381 1189l207 294h243l-255 -294h-195z" />
<glyph unicode="&#x454;" horiz-adv-x="1106" d="M93 474v124q0 220 129.5 352.5t352.5 132.5q200 0 318.5 -102.5t128.5 -257.5h-260q-11 56 -54.5 96.5t-124.5 40.5q-93 0 -146 -62t-58 -171v-6h352v-171h-352v-18q7 -108 61 -168.5t144 -60.5q156 0 181 130h260q-13 -164 -133 -258t-318 -94q-221 0 -351 130t-130 363 z" />
<glyph unicode="&#x455;" horiz-adv-x="1060" d="M80 301h273q8 -58 56 -92.5t127 -34.5q83 0 127.5 35t44.5 87q0 16 -4 29.5t-14 24.5t-20 19.5t-28.5 16t-31.5 12.5t-38 11t-39.5 9t-44 8.5t-43.5 8.5q-78 16 -135 38t-106.5 57.5t-75.5 89.5t-26 126q0 86 35 152.5t96.5 106t137.5 59t164 19.5q190 0 301 -87.5 t111 -238.5h-248q-6 56 -46.5 95t-123.5 39q-73 0 -116.5 -32.5t-43.5 -86.5q0 -17 5 -31t16.5 -25.5t22.5 -20.5t32 -17t35 -13t41 -10.5t40.5 -8.5t43.5 -8t41 -7q79 -14 136 -34.5t103.5 -54.5t70.5 -86.5t24 -123.5q0 -165 -121.5 -258t-337.5 -93q-207 0 -324 88 t-117 232z" />
<glyph unicode="&#x456;" horiz-adv-x="577" d="M129 1329q0 63 45 103.5t111 40.5t111.5 -40.5t45.5 -103.5q0 -64 -45.5 -104.5t-111.5 -40.5t-111 40.5t-45 104.5zM145 0v1064h281v-1064h-281z" />
<glyph unicode="&#x457;" horiz-adv-x="564" d="M-35 1329q0 61 41.5 100t100.5 39q60 0 101 -39t41 -100q0 -62 -41 -101t-101 -39q-59 0 -100.5 39t-41.5 101zM142 0v1064h281v-1064h-281zM320 1329q0 61 41 100t101 39t100.5 -39t40.5 -100q0 -62 -40.5 -101t-100.5 -39t-101 39t-41 101z" />
<glyph unicode="&#x458;" horiz-adv-x="574" d="M-47 -156q19 -4 57 -4q70 0 103.5 35.5t33.5 115.5v1073h280v-1076q0 -178 -96.5 -265t-265.5 -87q-74 0 -112 8v200zM131 1329q0 63 45 103.5t111 40.5t111.5 -40.5t45.5 -103.5q0 -64 -45.5 -104.5t-111.5 -40.5t-111 40.5t-45 104.5z" />
<glyph unicode="&#x459;" horiz-adv-x="1702" d="M53 0v242q21 -8 48 -8q22 0 39 7t30 23.5t22.5 36t16 52t10.5 62.5t6.5 76.5t4 86t2.5 98.5l8 388h802v-332h181q190 0 301.5 -99t111.5 -267q0 -167 -111.5 -266.5t-301.5 -99.5h-462v853h-273l-5 -200q-3 -100 -7.5 -170.5t-14 -145.5t-25 -125t-41 -96.5t-60 -73.5 t-83 -42.5t-110.5 -15.5q-24 0 -46 4t-32 8zM1039 208h140q80 0 128.5 44t48.5 115q0 72 -48.5 114.5t-129.5 42.5h-139v-316z" />
<glyph unicode="&#x45a;" horiz-adv-x="1743" d="M136 0v1064h281v-382h385v382h281v-382h191q185 0 294 -91.5t109 -246.5q0 -158 -109 -251t-294 -93h-472v471h-385v-471h-281zM1081 208h155q73 0 117.5 38t44.5 100t-44.5 98.5t-118.5 36.5h-154v-273z" />
<glyph unicode="&#x45b;" horiz-adv-x="1224" d="M28 1152v156h123v154h261v-154h235v-156h-226v-247h12q30 68 107.5 121.5t196.5 53.5q165 0 264.5 -102.5t99.5 -292.5v-685h-281v622q0 113 -55 166.5t-143 53.5q-94 0 -147.5 -61.5t-53.5 -162.5v-618h-281v1152h-112z" />
<glyph unicode="&#x45c;" horiz-adv-x="1162" d="M136 0v1064h281v-416h11l338 416h326l-412 -501l439 -563h-338l-352 446h-12v-446h-281zM476 1189l207 294h243l-255 -294h-195z" />
<glyph unicode="&#x45e;" horiz-adv-x="1078" d="M12 1064h311l214 -816h11l220 816h298q-338 -1015 -343 -1027l-27 -73q-24 -63 -49 -110.5t-63 -93t-84 -74t-112 -46t-148 -17.5q-95 0 -153 12v200q32 -7 89 -7q94 0 136 34t55 104l8 34zM225 1516h165q0 -76 38.5 -122t116.5 -46t117 46t39 122h164q0 -135 -84 -224 t-236 -89q-151 0 -235.5 89t-84.5 224z" />
<glyph unicode="&#x45f;" horiz-adv-x="1209" d="M136 0v1064h281v-853h375v853h281v-1064h-346v-285h-245v285h-346z" />
<glyph unicode="&#x490;" horiz-adv-x="1094" d="M151 0v1365h621v286h257v-286v-236h-588v-1129h-290z" />
<glyph unicode="&#x491;" horiz-adv-x="904" d="M136 0v1064h468v285h245v-496h-432v-853h-281z" />
<glyph unicode="&#x2000;" horiz-adv-x="899" />
<glyph unicode="&#x2001;" horiz-adv-x="1798" />
<glyph unicode="&#x2002;" horiz-adv-x="899" />
<glyph unicode="&#x2003;" horiz-adv-x="1798" />
<glyph unicode="&#x2004;" horiz-adv-x="599" />
<glyph unicode="&#x2005;" horiz-adv-x="449" />
<glyph unicode="&#x2006;" horiz-adv-x="299" />
<glyph unicode="&#x2007;" horiz-adv-x="299" />
<glyph unicode="&#x2008;" horiz-adv-x="224" />
<glyph unicode="&#x2009;" horiz-adv-x="359" />
<glyph unicode="&#x200a;" horiz-adv-x="99" />
<glyph unicode="&#x2010;" horiz-adv-x="788" d="M79 435v250h630v-250h-630z" />
<glyph unicode="&#x2011;" horiz-adv-x="788" d="M79 435v250h630v-250h-630z" />
<glyph unicode="&#x2012;" horiz-adv-x="788" d="M79 435v250h630v-250h-630z" />
<glyph unicode="&#x2013;" horiz-adv-x="1204" d="M0 435v250h1204v-250h-1204z" />
<glyph unicode="&#x2014;" horiz-adv-x="2048" d="M0 435v250h2048v-250h-2048z" />
<glyph unicode="&#x2018;" horiz-adv-x="529" d="M103 850l137 515h206l-85 -515h-258z" />
<glyph unicode="&#x2019;" horiz-adv-x="559" d="M116 850l85 515h258l-137 -515h-206z" />
<glyph unicode="&#x201a;" horiz-adv-x="559" d="M116 -454l85 516h258l-137 -516h-206z" />
<glyph unicode="&#x201c;" horiz-adv-x="945" d="M102 850l137 515h206l-85 -515h-258zM507 850l137 515h206l-85 -515h-258z" />
<glyph unicode="&#x201d;" horiz-adv-x="945" d="M95 850l85 515h258l-137 -515h-206zM500 850l85 515h258l-137 -515h-206z" />
<glyph unicode="&#x201e;" horiz-adv-x="965" d="M95 -409l85 516h258l-137 -516h-206zM500 -409l85 516h258l-137 -516h-206z" />
<glyph unicode="&#x2022;" horiz-adv-x="930" d="M134 613q0 137 97 234t233 97q137 0 234.5 -97t97.5 -234q0 -136 -97.5 -233t-234.5 -97q-136 0 -233 97t-97 233z" />
<glyph unicode="&#x2026;" horiz-adv-x="1592" d="M112 141q0 67 48 115t115 48t115 -48t48 -115t-48 -115t-115 -48t-115 48t-48 115zM629 141q0 67 47.5 115t115.5 48q67 0 115 -48t48 -115t-48 -115t-115 -48t-115 48t-48 115zM1145 141q0 67 47.5 115t115.5 48q67 0 115 -48t48 -115t-48 -115t-115 -48t-115 48 t-48 115z" />
<glyph unicode="&#x202f;" horiz-adv-x="359" />
<glyph unicode="&#x2039;" horiz-adv-x="801" d="M96 557v8l344 394h250l-339 -393v-6l339 -395h-259z" />
<glyph unicode="&#x203a;" horiz-adv-x="801" d="M102 165l339 395v6l-339 393h250l344 -394v-8l-335 -392h-259z" />
<glyph unicode="&#x205f;" horiz-adv-x="449" />
<glyph unicode="&#x20ac;" d="M37 461v151h115v134h-115v151h122q50 494 515 494q124 0 218.5 -38.5t153 -108.5t87.5 -162t29 -204h-277q0 58 -9 102.5t-30.5 84.5t-64.5 62t-105 22q-107 0 -161 -61t-62 -191h261v-151h-268v-134h268v-151h-261q7 -130 60.5 -187t162.5 -57q63 0 106 19.5t64.5 57.5 t30 80.5t8.5 100.5h277q0 -85 -17.5 -159t-55 -137.5t-94 -108.5t-138.5 -70.5t-184 -25.5q-240 0 -365 121.5t-149 365.5h-122z" />
<glyph unicode="&#x2122;" horiz-adv-x="1485" d="M54 1229v136h529v-136h-188v-426h-155v426h-186zM698 803v562h190l147 -321h7l147 321h189v-562h-149v351h-8l-134 -295h-97l-135 295h-8v-351h-149z" />
<glyph unicode="&#x25fc;" horiz-adv-x="1065" d="M0 0v1065h1065v-1065h-1065z" />
</font>
</defs>
</svg>
